<?xml version="1.0" encoding="UTF-8" standalone="no"?>
<!-- Created with Inkscape (http://www.inkscape.org/) -->

<svg
   xmlns:dc="http://purl.org/dc/elements/1.1/"
   xmlns:cc="http://creativecommons.org/ns#"
   xmlns:rdf="http://www.w3.org/1999/02/22-rdf-syntax-ns#"
   xmlns:svg="http://www.w3.org/2000/svg"
   xmlns="http://www.w3.org/2000/svg"
   xmlns:sodipodi="http://sodipodi.sourceforge.net/DTD/sodipodi-0.dtd"
   xmlns:inkscape="http://www.inkscape.org/namespaces/inkscape"
   id="svg2"
   version="1.1"
   inkscape:version="0.91 r13725"
   width="606.74158"
   height="455.05618"
   viewBox="0 0 606.74158 455.05618"
   sodipodi:docname="fish.svg"
   inkscape:export-filename="/home/katzedon/git/page/assets/img/project/path5142-2-2-7-7.png"
   inkscape:export-xdpi="90"
   inkscape:export-ydpi="90">
  <metadata
     id="metadata8">
    <rdf:RDF>
      <cc:Work
         rdf:about="">
        <dc:format>image/svg+xml</dc:format>
        <dc:type
           rdf:resource="http://purl.org/dc/dcmitype/StillImage" />
      </cc:Work>
    </rdf:RDF>
  </metadata>
  <defs
     id="defs6" />
  <sodipodi:namedview
     pagecolor="#ffffff"
     bordercolor="#666666"
     borderopacity="1"
     objecttolerance="10"
     gridtolerance="10"
     guidetolerance="10"
     inkscape:pageopacity="0"
     inkscape:pageshadow="2"
     inkscape:window-width="1366"
     inkscape:window-height="717"
     id="namedview4"
     showgrid="false"
     inkscape:zoom="0.25930864"
     inkscape:cx="240.03845"
     inkscape:cy="-83.921823"
     inkscape:window-x="0"
     inkscape:window-y="26"
     inkscape:window-maximized="1"
     inkscape:current-layer="svg2" />
  <path
     style="fill:#000000"
     d="m 165.45313,-110.19663 c -1.97923,0.0483 -7.70292,7.57664 -11.6912,15.378277 -5.09346,9.96336 -7.14062,18.877314 -6.84456,29.771771 l -0.005,0 c 0.2647,9.733318 0.4793,10.42063 5.83844,18.725554 3.05941,4.741152 6.57922,9.725006 7.82202,11.078155 1.24265,1.353123 4.64044,5.512574 7.54957,9.246116 2.90923,3.733553 5.60105,7.065137 5.97943,7.401817 3.02378,2.690578 8.41491,10.7090685 9.47339,13.9710975 -0.37278,-0.11122 -0.81722,0.27904 -1.46736,0.90618 -1.19966,1.15714 -1.85254,3.77175997 -1.59405,6.380201 0.0489,0.49403 0.0715,1.0057 0.0837,1.52506 -0.32345,0.28973 -0.65778,0.57655 -1.02765,0.85462 0.32153,0.24244 0.67234,0.47108 1.01331,0.70482 -0.26421,6.5739395 -2.99779,14.1149995 -5.75957,14.8772995 -1.49363,0.41224 -3.31528,-0.10125 -4.04842,-1.13705 -0.733,-1.03579 -2.49366,-9.048809 -3.9122,-17.8070705 -1.96415,-12.1276495 -2.99419,-16.1710995 -4.32565,-16.9598195 -2.7526,-1.63082 -6.96313,2.67699 -6.78721,6.9450305 0.15724,3.807119 -0.33586,13.70817 -0.90815,18.2 -0.18894,1.4843495 -0.48135,4.9327595 -0.65004,7.6645795 -0.27501,4.45073 -0.72914,5.0834 -4.36866,6.08796 l -4.06275,1.11985 -1.64185,-9.6366 C 143.21566,9.8009085 142.45029,4.1540985 142.4171,2.5520385 c -0.0407,-2.00403103 -0.58884,-2.76654103 -1.75894,-2.44354103 -1.83305,0.5059 -2.76793,3.95242103 -3.04946,11.25498053 -0.0977,2.53321 -0.80939,6.17229 -1.58209,8.08451 l -1.40287,3.47497 -3.39119,-2.15374 c -5.89135,-3.7426 -11.21063,-12.7997695 -17.3504,-29.5458295 -3.24936,-8.8626325 -6.64684,-14.4377455 -8.48878,-13.9293555 -1.81619,0.501298 -1.4327,12.207275 0.66199,20.2211245 3.70662,14.1804005 2.77134,33.5112505 -1.68006,34.7398905 -0.92654,0.25575 -4.34149,-3.47256 -8.092071,-8.83354 -5.93086,-8.47767 -8.93972,-10.62293 -9.96573,-7.10466 -0.2114,0.72494 0.24544,1.5114 1.0157,1.74853 0.77013,0.23721 2.53831,4.78549 3.92892,10.10566 2.42685,9.28434 2.41874,9.75534 -0.21269,11.7093 -1.50801,1.11963 -3.21142,1.8885 -3.78554,1.7117 -0.57409,-0.17682 -3.11426,-4.3107 -5.64485,-9.18964 -5.98371,-11.53637 -8.97701,-15.00525 -11.40203,-13.20979 -3.92043,2.9027 -4.13877,5.42953 -1.63706,18.90235 1.37833,7.42326 2.29999,14.2027 2.04812,15.06639 -0.25187,0.86369 -1.77256,2.80595 -3.37927,4.31239 -2.7787,2.60542 -3.07901,2.61393 -6.19452,0.22103 -1.80136,-1.38352 -3.66279,-3.99652 -4.13683,-5.81044 -1.04838,-4.01081 -5.10018,-10.33054 -6.39528,-9.97303 -1.58909,0.43858 -1.45125,4.16274 0.44691,12.02363 2.87467,11.90432 2.71585,15.02776 -0.83646,16.47601 -2.45659,1.00155 -4.91498,0.13212 -12.55871,-4.44502 -9.20052,-5.50911 -11.08274,-7.23813 -19.49888,-17.92739 -4.56429,-5.79717 -6.61299,-6.7743 -8.1207303,-3.87281 -0.88212,1.69746 -0.27219,3.41455 3.3123503,9.33208 2.41549,3.98773 5.80914,9.60435 7.54238,12.48286 4.19616,6.96959 8.40392,22.94866 6.43112,24.42304 -1.90309,1.42233 -9.15474,-0.81226 -15.32617,-4.72006 -2.7081203,-1.71487 -5.4820203,-2.96071 -6.1634603,-2.77262 -3.32217,0.91699 0.47402,8.32777 4.3686703,8.52902 4.89602,0.25303 11.28823,10.818392 8.02276,13.258912 -0.87451,0.65351 -1.70261,0.79594 -1.84018,0.31926 -0.13735,-0.47668 -1.96594,-2.14684 -4.06517,-3.71565 -2.09909,-1.568812 -5.2322003,-3.926082 -6.9640503,-5.238242 -2.87987,-2.18163 -3.27281,-2.17877 -4.55745997,0.0639 -1.29218,2.25592 -1.06024,2.92279 2.87739997,8.320262 6.9636003,9.54505 8.5886103,12.82336 7.8865303,15.91856 -0.80362,3.54306 -2.8066903,4.07807 -9.8390703,2.62034 -3.0955,-0.6418 -7.21186,-1.22598 -9.14599,-1.29419 -5.5679997,-0.19632 -3.4766497,3.97667 3.27172,6.52753 6.53673,2.47085 8.79062,5.26367 6.92821,8.58304 -1.17803,2.0997 -2.43478997,2.28319 -12.0186,1.7731 -9.9882197,-0.53171 -24.4053197,-2.76155 -26.1833297,-4.04962 -0.42991,-0.31134 -3.35631,-1.37263 -6.50281,-2.3625 -4.80739,-1.51233 -5.64352,-1.64146 -9.19617,1.19108 -3.55308,2.83251 -2.38679,4.34704 0.24377,5.8129 3.60563,2.00932 24.84398,21.56861 29.00573,26.71182 1.77876,2.19855 1.46176,2.26394 -8.77558,1.90818 -6.30059,-0.21895 -10.89589,0.13292 -11.29925,0.86198 -0.37392,0.67595 0.32877,1.51843 1.56296,1.86888 20.23805,6.11075 14.7604,4.15299 19.80238,8.53147 l -1.54862,8.25889 c -1.30825,6.97218 -1.95168,8.27704 -4.14163,8.35959 -3.33832,0.12578 -13.62957,-3.03023 -18.89185,-5.79326 -4.36877,-2.29388 -9.69797,-2.59606 -12.38425,-0.70235 -2.40816,1.69756 -1.79582,7.89206 0.95834,9.69552 1.29278,0.84669 3.0339,2.1008 3.87157,2.78489 0.83779,0.68404 1.89332,1.23051 2.34445,1.21316 1.07879,-0.0406 15.33062,9.19946 18.40431,11.93279 3.28314,2.91981 2.61391,7.63906 -1.25707,8.85319 -2.80566,0.88 -6.10495,0.68209 -20.53366,-1.2279 -4.05046,-0.5361 -5.21504,-0.30028 -5.16689,1.04617 0.0658,1.84354 13.12412,8.16142 16.59758,8.0305 1.12963,-0.0426 2.07453,0.49006 2.09829,1.18124 0.0245,0.69113 0.61603,1.23424 1.31681,1.20827 0.70064,-0.0264 2.50496,1.04564 4.0078,2.38212 l 2.734,2.43125 -2.06245,7.07519 c -0.37717,1.29408 -0.79583,2.47448 -1.24512,3.56093 1.31624,0.28449 2.58936,0.21332 3.76643,-0.57957 0.65774,-0.44306 -1.25033,2.20768 -0.48037,2.37231 0.14887,0.0318 0.13117,4.43226 0.0311,8.7525 0.30413,-0.187 0.71464,-0.44458 0.91293,-0.55993 -0.91309,4.52198 -1.47601,9.50378 -1.51756,14.90924 -0.15916,0.12577 -0.62681,0.50487 -0.81734,0.65813 0.0911,1.03937 0.34646,2.41062 0.71457,5.18178 0.0861,-0.0332 0.16595,-0.0708 0.25332,-0.10313 0.58822,9.53636 2.86095,20.25962 7.77421,32.09004 0.0121,0.26219 0.003,0.52607 0.0286,0.78586 0.26117,3.55922 0.35759,5.50994 0.10758,6.6577 2.13091,3.7886 3.63717,7.58377 4.47382,11.36059 0.33163,0.74818 0.64782,1.45033 1.01092,2.31336 1.14649,2.72489 3.63139,8.10917 5.52058,11.96716 2.06419,4.21553 3.13642,7.94229 2.6886,9.33699 -1.36849,4.26118 -7.81932,14.77371 -12.22654,19.92644 -2.1212,2.47992 -2.69345,9.25384 -0.71217,8.43325 0.61268,-0.25374 3.41587,-2.84619 6.22558,-5.76133 5.67898,-5.89176 11.9292597,-9.80926 15.8854197,-9.95831 3.33,-0.12551 7.01029,5.6496 7.21259,11.31637 0.1702,4.76906 -6.5526,25.91115 -12.80487,40.26791 -2.8653697,6.5796 -3.6823697,9.75686 -2.7435697,10.65331 0.9387997,0.89639 1.9126397,0.64042 3.2645697,-0.85463 1.05975,-1.17187 2.40109,-2.14423 2.98015,-2.16603 0.57919,-0.0217 1.35014,-1.1449 1.71353,-2.49019 1.52641003,-5.65295 16.7257603,-20.19095 24.6729203,-23.60033 2.61944,-1.12375 3.67155,-1.63144 5.23619,-0.889 l -0.88664,2.50984 c -1.50424,4.25271 -3.55272,9.18756 -4.5527,10.97009 -1.0001,1.78254 -1.67306,3.79188 -1.49842,4.45976 0.52838,2.0214 4.29724,0.23975 6.76568,-3.19501 3.10814,-4.32484 5.30357,-7.2609 7.01664,-9.32472 1.86982,1.65776 2.86598,2.75622 3.29322,3.89984 1.93963,-1.01517 3.87547,-2.04131 5.80975,-3.07222 -0.16571,1.56899 -0.63178,3.85253 -1.51278,7.94455 -1.14136,5.30119 -0.48077,8.39276 1.66812,7.79963 0.87818,-0.24238 3.81765,-2.57065 6.53149,-5.17438 l 4.93506,-4.73481 3.33864,2.5295 c 6.7708,5.12908 5.62524,12.21462 -5.28876,32.72857 -3.56632,6.70333 -6.32068,12.81466 -6.12044,13.58062 0.54211,2.07424 7.10547,1.25572 7.6619,-0.95531 0.82262,-3.27024 9.20827,-11.04139 19.1356,-17.73585 10.70432,-7.21836 11.25874,-7.28344 20.06528,-2.3502 l 4.50728,2.52211 -1.68724,7.76526 c -0.92718,4.26992 -2.0348,8.05647 -2.46394,8.41361 -0.42926,0.35717 -0.65578,1.12315 -0.50427,1.70187 0.15127,0.57876 -0.73718,4.07519 -1.97403,7.77019 -2.58248,7.71571 -1.21359,10.38324 4.8108,9.37135 3.684771,-0.61887 4.314041,-1.60469 11.244291,-17.65235 2.38514,-5.52326 5.23081,-10.07181 6.48607,-10.36842 0.67007,-0.15827 6.58535,1.3163 13.14662,3.27605 9.28111,2.77212 11.79297,4.01972 11.30884,5.61889 -0.34303,1.1306 -0.17584,3.78627 0.36565,5.90621 1.4564,5.68314 1.47918,19.26117 0.0454,27.23985 -0.6906,3.84227 -0.90881,8.29705 -0.47798,9.89691 0.64453,2.41224 2.495,-0.25995 10.80934,-15.60175 10.41224,-19.21237 14.30065,-24.0085 20.9543,-25.84494 l 3.93133,-1.08302 0.86034,5.94552 c 0.47361,3.27056 1.33254,9.8415 1.90712,14.60469 1.14983,9.52864 2.4516,12.51044 5.60661,12.84879 4.77898,0.51261 7.25809,-5.42443 7.6332,-18.2884 0.39494,-13.5389 0.79433,-14.80099 4.79646,-15.08112 1.96734,-0.13772 4.2708,-0.44124 5.11908,-0.67535 0.89158,-0.2461 3.58983,2.98939 6.39766,7.67195 2.67069,4.45433 5.62308,9.16724 6.56255,10.47402 0.93935,1.3068 3.50905,7.74362 5.7046,14.30509 2.63096,7.86344 4.55014,11.99322 5.6353,12.10959 0.45272,0.0485 0.92227,-0.0121 1.31442,-0.14735 0.39216,-0.13507 0.70828,-0.34602 0.85078,-0.59921 0.28454,-0.50652 0.25895,-1.90302 -0.055,-3.10415 -0.76288,-2.91844 -0.21132,-12.07073 1.68008,-27.87589 0.8585,-7.17323 1.33348,-13.91241 1.05631,-14.97306 -0.5815,-2.22474 3.42352,-5.54933 8.30237,-6.89592 3.25985,-0.89978 3.46705,-0.6721 7.01185,7.50496 2.00986,4.63671 4.72779,10.16107 6.03919,12.27905 2.41524,3.90057 6.25292,6.96301 7.01662,5.6017 0.42211,-0.75205 -0.27112,-10.14378 -1.65378,-22.40189 -0.88437,-7.84112 0.19454,-10.21652 5.90296,-12.99861 3.8883,-1.89505 4.34799,-1.81435 6.30922,1.09284 1.16405,1.72537 3.21945,4.2982 4.56464,5.71711 4.52504,4.77347 16.03318,20.92022 18.0291,25.29485 1.26811,2.77965 2.62711,4.15752 3.78311,3.83844 3.6479,-1.00686 3.8145,-4.21445 0.8365,-15.85472 -2.8605,-11.17985 -4.98803,-32.82815 -3.5752,-36.35334 0.3808,-0.94998 3.5657,-3.699 7.0811,-6.10761 l 6.3929,-4.37871 2.9969,3.97596 c 1.6482,2.1863 4.5515,6.4778 6.4526,9.53345 4.5982,7.39091 5.9236,8.06048 10.4795,5.31438 l 3.69,-2.2225 -2.3875,-6.09778 c -7.7907,-19.88179 -8.0269,-20.81561 -5.3939,-21.54237 1.3504,-0.37273 2.6426,-1.31615 2.8702,-2.0948 0.7769,-2.66427 5.1792,-2.73593 9.5404,-0.15226 4.7192,2.79584 19.4689,16.83284 24.6872,23.49227 3.3258,4.2442 4.835,4.3538 6.0177,0.42977 0.4614,-1.53113 -0.3019,-4.23912 -2.3612,-8.38414 -6.5765,-13.23728 -9.3654,-20.18707 -11.6554,-29.03012 l -2.385,-9.20928 3.5967,-5.22351 c 1.9769,-2.87293 4.1627,-5.38077 4.8562,-5.57223 0.6943,-0.19137 1.141,-0.80724 0.9942,-1.36789 -0.1467,-0.56069 1.0071,-2.10288 2.5643,-3.4234 2.5414,-2.1552 3.154,-2.1704 5.9747,-0.16945 6.3153,4.48027 10.4753,8.00052 13.6795,11.57177 3.3225,3.70286 6.8159,4.2791 9.2273,1.52507 1.1075,-1.26495 0.8672,-2.2183 -1.4555,-5.78835 -1.5298,-2.35135 -3.3413,-4.67774 -4.0245,-5.16948 -0.683,-0.49172 -1.4691,-1.73984 -1.7398,-2.77506 -0.2706,-1.03521 -1.6726,-3.1926 -3.1068,-4.79619 -1.4341,-1.60363 -3.4638,-4.74968 -4.5121,-6.99169 -1.7565,-3.75779 -1.5981,-4.55825 2.029,-10.23335 4.4414,-6.94872 4.2286,-6.803 9.1986,-6.30898 8.5719,0.85208 27.26199,10.14855 30.34169,15.08849 0.7326,1.17558 1.7917,2.01107 2.3516,1.85658 0.5597,-0.15447 2.1213,0.37243 3.4701,1.17142 1.7205,1.01946 2.7224,0.96651 3.3625,-0.17435 0.6402,-1.14087 -1.0516,-3.92913 -5.6759,-9.34927 -10.09099,-11.82669 -22.57679,-29.99592 -23.78149,-34.60481 -1.4315,-5.47648 0.4311,-12.10788 3.6493,-12.99614 3.8232,-1.05525 10.9202,0.79437 18.03629,4.70533 3.5207,1.93511 6.9414,3.56774 7.5997,3.62478 2.1285,0.18431 -0.3617,-6.12108 -3.0996,-7.84878 -5.6891,-3.58976 -14.86879,-11.68119 -17.39819,-15.33897 -0.828,-1.19718 -0.8691,-5.08151 -0.1052,-9.73483 0.2579,-1.57039 0.5229,-3.41013 0.7839,-5.1965 0.2024,-0.0853 0.413,-0.16494 0.6094,-0.2554 2.2361,-1.02969 4.1031,-2.38609 5.93639,-4.11595 8.1413,-7.68253 12.6924,-13.78676 12.9387,-17.34783 0.407,-5.88276 9.5367,-17.5938 19.0663,-24.45494 27.58941,-16.24416 -22.086,-26.24841 -28.9268,-28.25164 -0.089,1.28227 -7.85629,-1.57927 -13.31389,-1.53488 -1.3097,-0.0446 -4.2106,0.98804 -7.4564,2.45826 0.8654,-0.61478 1.748,-1.22734 2.6838,-1.81238 -1.1187,-5.33034 -1.483,-11.71342 0.6046,-18.15089 -0.6011,-0.76712 -1.1978,-1.59993 -1.7924,-2.5123 l -4.0006,-6.13705 1.9143,-3.15327 c 1.053,-1.73215 2.4703,-3.2979 3.1474,-3.48479 0.6773,-0.18684 1.0876,-0.88665 0.913,-1.55453 -0.1746,-0.6679 0.5764,-1.46197 1.6681,-1.76326 3.3569,-0.92652 14.02089,-10.91982 13.55529,-12.70145 -0.3402,-1.30125 -1.517,-1.17374 -5.23379,0.56483 -13.2408,6.19351 -16.3409,7.38113 -19.2742,7.38954 -4.0472,0.0108 -6.0381,-4.29297 -3.7378,-8.07716 2.1536,-3.54255 13.1246,-16.68924 14.1671,-16.97702 0.4361,-0.12039 1.2859,-0.96152 1.8904,-1.86886 0.6044,-0.90731 1.9108,-2.63299 2.9037,-3.83352 2.1146,-2.55718 0.9237,-8.66236 -1.8641,-9.55556 -3.11,-0.99641 -8.1169,0.90579 -11.6339,4.42045 -4.2367,4.2336 -13.1659,10.36699 -16.392,11.25744 -2.1166,0.58417 -3.1054,-0.4672 -6.3547,-6.73383 l -3.8476,-7.42637 7.2556,-6.42931 c 3.9922,-3.537582 8.1416,-7.010002 9.2201,-7.718592 1.0787,-0.70861 1.5095,-1.72662 0.9583,-2.25935 -0.5945,-0.57463 -5.0854,0.48153 -11.0435,2.59824 -9.681,3.4393 -10.0053,3.47202 -8.9357,0.83253 2.5023,-6.17487 17.1934,-31.2959 20.0628,-34.30767 2.0936,-2.19716 2.7716,-3.99725 2.1079,-5.58941 -1.6375,-3.92759 -6.5823,-2.06687 -13.6772,5.14738 -7.3939,7.51863 -18.5654,16.10721 -22.295,17.13664 -4.6833,1.29264 -11.1306,0.0624 -11.7318,-2.23725 -0.3147,-1.2038 1.3458,-5.75883 3.6899,-10.1204 2.3442,-4.36153 4.0738,-8.64425 3.8453,-9.5187 -0.4665,-1.78479 -3.6233,-1.33116 -4.187,0.60167 -0.3535,1.2121 -7.5565,7.82233 -12.6161,11.57914 -3.8644,2.86937 -2.569,-0.18825 10.5919,-25.03942 5.4681,-10.32499 5.7672,-12.4943 2.1317,-15.38811 -3.627,-2.88726 -10.1821,0.75772 -14.6809,8.1582 -3.2939,5.41855 -16.0283,19.75465 -19.0591,21.45641 -3.3891,1.90279 -5.613,0.71063 -8.0299,-4.30504 -2.8652,-5.94517 -0.2992,-17.37441 7.7813,-34.67849 4.425,-9.4762895 4.7477,-12.9927095 1.2356,-13.3694195 -1.3567,-0.14553 -4.3823,3.83708 -9.1914,12.0924095 -10.80971,18.55646 -15.25584,22.88584 -23.93446,23.29826 -5.61026,0.26657 -6.21502,-4.31922 -2.75551,-20.89894 0.57642,-2.76286 0.89003,-5.63137 0.69546,-6.375269 -0.76246,-2.9168305 -4.57546,0.0692 -6.19931,4.855129 -2.68261,7.90588 -6.76639,14.19852 -9.75062,15.02218 -2.3733,0.65505 -2.88998,0.14843 -3.9385,-3.86297 -0.66331,-2.53795 -0.86951,-5.26242 -0.45886,-6.05604 0.28493,-0.55031 0.46864,-3.03713 0.51144,-6.13707 0.80332,0.16018 1.56974,0.32014 2.60733,0.4838 0.69406,-1.60802 4.2619,-4.769769 5.848,-4.808479 1.10668,-0.027 2.52339,-0.51064 3.14983,-1.0756505 0.62645,-0.56493 4.32046,-2.17678 8.20678,-3.58057 13.21561,-4.773631 21.31082,-15.89805 25.04092,-34.4132505 0.9475,-4.703796 1.7039,-9.407093 1.6801,-10.451927 -0.072,-3.113769 -3.9485,-1.308406 -6.0511,2.819271 -2.55515,5.016533 -8.9309,7.071595 -18.14383,5.847285 -8.43437,-1.120922 -25.87787,-5.922928 -33.34333,-9.177359 -3.06016,-1.334006 -7.51377,-3.281987 -9.89402,-4.329598 -4.964,-2.184575 -30.02996,-16.881156 -31.00367,-18.1779 -0.35617,-0.474148 -2.22073,-1.839488 -4.14401,-3.032926 -5.44273,-3.377471 -8.55558,-5.934643 -21.09769,-17.342917 -2.25157,-2.04795 -5.16848,-5.32925 -6.48369,-7.29131 -2.64523,-3.94619 -3.37718,-12.531377 -1.26186,-14.810977 1.75016,-1.88577 1.6376,-5.50853 -0.0239,-5.9136 -0.11055,-0.0275 -0.22922,-0.0375 -0.35371,-0.0344 z m -7.02619,25.363597 c 0.70868,0.003 3.1992,1.70704 5.53493,3.786856 l 4.24677,3.779488 -0.92487,9.241211 c -1.0394,10.399809 0.265,17.472146 1.48648,8.057503 0.40484,-3.122812 1.24871,-7.526652 1.87366,-9.786392 0.97717,-3.533474 1.46928,-3.938801 3.50831,-2.880658 4.48819,2.329073 6.2205,7.776019 6.51477,20.488821 0.1527,6.602287 0.74493,11.990954 1.3168,11.976974 0.57163,-0.01402 0.70079,-4.118212 0.28919,-9.123326 -0.41149,-5.005155 -0.29263,-10.414679 0.26287,-12.018741 l 1.00852,-2.9175 3.0686,2.578596 c 1.68867,1.418237 4.19778,3.520065 5.57076,4.668489 1.37284,1.148437 4.59046,3.345201 7.15046,4.882167 4.47059,2.683758 4.66249,3.078096 4.90399,9.919013 0.38084,10.813574 2.4947,14.048296 2.35879,3.610025 -0.084,-6.510304 0.30167,-8.493537 1.65378,-8.526566 2.6982,-0.06592 3.42853,1.949476 3.69473,10.189163 0.22322,6.908365 0.37933,7.307193 1.77089,4.577612 0.83873,-1.64491 1.50716,-4.584015 1.48649,-6.532441 -0.0337,-3.090324 0.31517,-3.439744 2.73399,-2.728408 1.52509,0.448466 3.05436,1.16231 3.40079,1.586455 0.3463,0.424119 3.83366,2.309898 7.74792,4.192063 7.69449,3.699796 8.68568,5.868181 5.47757,11.967162 -2.15456,4.096212 -2.14331,5.17638 0.0406,4.253457 0.96768,-0.408966 2.33015,-2.681723 3.03035,-5.049131 0.69991,-2.367382 1.71285,-4.602782 2.25124,-4.963203 1.02878,-0.688512 8.65441,1.474009 8.67758,2.460725 0.007,0.314748 -1.30004,2.666167 -2.90606,5.223512 -3.9641,6.312385 -2.69193,6.837385 2.41853,0.997056 2.74414,-3.13589 4.92728,-4.579701 6.34269,-4.189609 1.18756,0.327243 4.23886,0.924582 6.78004,1.32368 2.54091,0.399084 4.90956,1.179336 5.26248,1.736258 0.58306,0.91954 -1.54249,3.981648 -7.4038,10.66804 -2.40397,2.7422005 -1.35212,2.4407805 4.03648,-1.15178 2.05214,-1.36823 4.47879,-3.93403 5.39152,-5.702399 1.50404,-2.913505 2.28853,-3.194871 8.37886,-3.013266 3.69661,0.110276 6.88547,0.355513 7.08354,0.547647 0.95332,0.925377 -3.07856,8.232418 -7.19108,13.0329685 -4.07045,9.495859 -18.45262,14.47052 -26.07817,17.6744605 -0.12052,-4.7439805 -0.0809,-9.58371153 0.1003,-10.99465153 1.08641,-8.43455897 1.15523,-10.50641947 0.4493,-13.20733947 -0.66716,-2.55238 -1.33092,-2.8259 -4.62918,-1.91553 -4.21707,1.16398 -5.03465,3.20415 -8.92851,22.1882305 -1.979,9.6498695 -4.71912,16.7323395 -6.68205,17.2741595 -0.64256,0.17732 -3.08682,-1.05095 -5.43215,-2.73086 -3.84988,-2.75747 -4.37123,-3.73098 -5.37241,-9.992689 -0.6099,-3.8147205 -0.67527,-14.7868215 -0.14338,-24.381261 0.53174,-9.594456 0.6316,-17.63953 0.22463,-17.880763 -1.87535,-1.111 -5.05811,1.028104 -5.69264,3.828623 -0.38644,1.703015 -1.22126,4.029953 -1.85931,5.167012 -0.63733,1.137247 -0.95691,2.84742 -0.7074,3.801593 0.24913,0.954065 0.0554,1.849865 -0.43018,1.991655 -0.48552,0.14185 -1.29945,2.57018 -1.81151,5.39543 -2.03628,11.24373947 -8.3643,22.98732 -13.84447,25.69266 -6.11408,3.01829 -7.42755,2.90872 -9.08147,-5.0933395 0.0779,0.0337 0.14861,0.0696 0.22705,0.10314 0.48491,-0.95908 1.01759,-2.00234 1.66573,-3.23431 3.43276,-6.52573103 3.61904,-12.508791 0.53532,-17.1219005 -2.2033,-3.29614 -9.46313,-11.376228 -17.94067,-19.970634 -6.30373,-6.390376 -13.19949,-15.875201 -15.62492,-21.490798 -1.14469,-2.650582 -2.16352,-8.285687 -2.26558,-12.522166 -0.19213,-8.038446 2.76937,-19.751573 4.99241,-19.742253 z m 55.28465,77.2867815 c 0.38281,-0.0411 0.43615,2.180039 -0.0884,6.68961897 -2.17382,18.68511053 3.26338,30.25535053 14.81475,31.52278053 l 2.93953,0.3217 -2.50218,8.20732 c -1.37527,4.51394 -2.73616,8.5796 -3.02558,9.03492 -2.91118,4.58063 -6.96367,13.7273 -6.2662,14.14054 1.49859,0.88787 6.49382,-4.6414 9.7554,-10.79573 3.8139,-7.19643 9.17094,-22.34458 8.63218,-24.40583 -0.21793,-0.83533 -0.0421,-1.81135 0.38716,-2.16848 0.71032,-0.59097 2.18881,-6.67608 5.15255,-21.1838095 0.66248,-3.24099103 1.167,-4.80907103 1.47453,-4.896891 l 0,0.003 c 0.51254,-0.14635 0.47782,3.809711 -0.28201,10.960291 -1.03005,9.6937595 -1.59227,18.5588095 -1.97401,31.0561595 -0.0771,2.52755 0.98237,9.26444 2.35162,14.97305 2.01579,8.40599 2.81434,10.28927 4.21809,9.90182 1.29257,-0.35679 1.36008,-3.43086 0.26529,-12.08748 -1.26019,-9.96568 -1.18783,-16.95264 0.18163,-17.33064 0.20716,-0.0572 2.02221,0.76075 4.03169,1.8173 2.00937,1.05652 6.12434,3.20556 9.146,4.77408 9.40557,4.88264 17.10574,3.50101 24.66815,-4.42782 1.95004,-2.04471 3.40606,-3.1173 3.23346,-2.38213 -1.46662,6.25078 -2.28812,14.78848 -1.65378,17.21522 0.42497,1.6257 2.52862,4.21079 4.67222,5.74659 2.1436,1.53586 3.9794,3.11356 4.0818,3.50444 0.3058,1.1699 -8.04468,8.756 -13.64366,12.39446 -6.25694,4.06582 -6.57975,6.2272 -0.77193,5.15229 5.67043,-1.04953 17.87959,-10.7787 26.59439,-21.19118 19.3252,-23.08915 22.0011,-26.08972 22.8207,-25.60425 0.4878,0.28911 -3.484,7.96535 -8.8281,17.05804 -5.3443,9.0927 -11.1946,20.24815 -13.0008,24.79139 -1.8063,4.54326 -3.8411,9.40033 -4.5216,10.79574 -3.5426,7.26407 -3.4946,16.357792 0.081,15.370892 0.6212,-0.17154 2.62,-3.125132 4.4403,-6.564362 3.082,-5.82277 3.8385,-6.44866 10.991,-9.0693 5.9396,-2.17626 8.4678,-2.54862 11.1487,-1.64293 4.0567,1.37051 14.9545,-1.266 19.3841,-4.68815 12.9607,-10.01298 13.1998,-9.95447 7.0645,1.69697 -2.128,4.04138 -4.6578,10.33043 -5.6258,13.976 -1.5247,5.742892 -1.4592,7.117222 0.4947,10.280012 5.3203,8.61165 10.1041,18.09842 9.9395,19.71769 -0.1169,1.15001 -3.7054,3.03563 -10.4915,5.5133 -11.3364,4.13895 -14.4926,6.35199 -10.9575,7.67686 1.2858,0.48148 6.8892,-0.73877 14.3845,-3.12871 11.7414,-3.74373 23.1231,-10.08681 32.0696,-17.87338 1.4192,-1.23523 2.9276,-2.55001 3.353,-2.92242 0.4252,-0.3725 0.8405,-0.42976 0.9201,-0.12524 0.08,0.30446 -4.3357,5.77563 -9.8104,12.15625 -5.475,6.38059 -12.3441,15.80785 -15.2641,20.94806 -5.6984,10.0306 -9.5154,20.89568 -7.8937,22.46329 1.1609,1.12208 5.0738,-3.06901 8.6465,-9.25841 2.836,-4.91283 6.717,-6.45479 10.1569,-4.03488 3.5169,2.47392 8.4897,13.57564 11.8657,26.49082 0.5972,2.28468 1.1874,4.279 1.7398,5.96516 -2.0646,0.95794 -4.207,2.06072 -6.2041,3.21465 -1.977,-0.25454 -4.4894,-0.73045 -7.1289,-1.33351 0.686,0.85727 1.2431,1.5867 1.4936,1.97938 0.7047,1.10466 2.2554,0.69415 3.7187,0.51818 -1.2899,0.80977 -2.4861,1.61284 -3.3936,2.3502 -2.6606,2.16186 -9.8716,9.99842 -16.0264,17.41661 -2.1094,2.54226 -4.5634,7.11741 -6.2543,9.16017 -1.8449,4.56886 -17.933,3.49586 -19.7618,7.76527 17.8252,-0.1976 20.7021,4.85548 24.6777,-0.65079 4.1791,-5.7875 22.4255,-30.20212 20.2852,-26.50556 -3.9407,6.80641 -8.1868,15.62824 -8.2928,17.22505 -0.074,1.07164 2.109,-1.92778 4.849,-6.66507 4.8009,-8.30138 12.5435,-16.98691 15.0657,-16.90086 1.8024,0.0615 1.1207,5.16732 -0.9368,7.02115 -0.9793,0.88243 -1.5246,2.52046 -1.2141,3.63214 0.3202,1.14538 1.7622,-0.37176 3.3315,-3.49708 2.8924,-5.76042 8.8369,-9.34126 12.7355,-7.67194 3.07059,1.31477 2.64709,4.40657 -1.4769,10.8031 -5.598,8.6827 -2.6816,7.46623 3.37929,-1.40963 3.0595,-4.4804 6.3941,-8.11917 7.4109,-8.08452 2.4285,0.0829 0.6243,4.08782 -4.2037,9.32716 -2.0792,2.25615 -3.821,4.66995 -3.8692,5.36103 -0.048,0.69112 -0.5833,2.47374 -1.18539,3.96123 -1.1208,2.76945 1.16769,0.15069 9.56659,-10.95292 4.3716,-5.77923 9.3215,-7.72293 11.1296,-4.36888 0.4346,0.80777 -0.9728,3.96219 -3.1283,7.00641 -6.5616,9.26615 -6.5362,9.21608 -4.0867,8.38414 1.2526,-0.42552 3.0435,-2.54679 3.9791,-4.71269 3.7576,-8.6968 10.8136,-12.75625 14.2101,-8.17785 1.2487,1.68318 -0.1345,3.72724 -6.6701,9.87726 -4.5322,4.26459 -13.9211,15.26411 -20.8634,24.44759 -7.32239,9.68608 -14.58119,17.72506 -17.29069,19.13812 -5.2958,2.76188 -16.7596,3.00812 -22.7013,0.48625 -2.1911,-0.93003 -9.5553,-1.96436 -16.3657,-2.29617 -7.4919,-0.36501 -10.6984,-0.33842 -13.5028,0.73182 -3.8544,8.00548 -4.2128,9.21522 -7.4396,14.82327 -2.669,4.63856 -1.7128,6.88004 1.6418,7.64739 l 2.9539,-7.1194 c 2.1594,-5.20514 1.4231,-3.10288 4.242,-5.23823 0.036,-0.25027 0.09,-0.51677 0.1267,-0.76868 3.475,-1.20446 9.7499,-2.24378 20.3999,-1.43418 1.115,0.0848 2.0663,0.14301 3.1211,0.21856 4.0683,4.08598 8.9096,8.40999 11.0555,9.7643 1.0432,0.6583 1.9546,1.42292 2.0266,1.69942 0.2034,0.77801 -12.9845,-0.9332 -18.703,-2.42635 -4.2046,-1.09782 -5.297,-0.97999 -6.1587,0.66552 -0.8039,1.53537 -0.6874,2.03541 0.5043,2.14639 4.1764,0.38884 18.6325,5.98462 23.184,8.97352 9.2987,6.10653 10.2897,8.39211 6.7012,15.45687 -0.5782,1.13816 -1.3458,3.36895 -1.7064,4.95828 -1.4001,6.17303 -15.1854,31.17014 -16.5952,30.09348 -3.7485,-2.86232 -15.181,-19.6186 -18.758,-27.49278 -2.0719,-4.56107 -3.9423,-6.02618 -4.6411,-3.62968 -0.6012,2.06142 6.818,19.65282 11.5741,27.44367 2.2446,3.67688 5.866,9.70996 8.049,13.40381 2.1831,3.69385 4.4837,7.15872 5.112,7.70141 0.6282,0.54267 1.9281,2.52705 2.8869,4.41063 1.5881,3.11973 1.0179,2.93779 -6.3785,-2.03831 -21.006,-14.13218 -34.4898,-21.18316 -38.429,-20.0959 -3.0096,0.83072 -1.9374,2.0075 7.0477,7.73089 7.7369,4.92815 15.0901,11.92762 15.9069,15.14497 0.1808,0.7107 -1.4705,3.12346 -3.666,5.36104 -2.1954,2.23759 -5.379,6.20531 -7.074,8.81881 -1.695,2.61357 -6.5467,7.98754 -10.7807,11.94015 l -7.6953,7.1857 -4.8921,-5.76134 c -4.6137,-5.43365 -5.0443,-6.49092 -7.5806,-18.63467 -1.4789,-7.08097 -3.2138,-13.03449 -3.8548,-13.23192 -1.1374,-0.35028 -1.2468,1.98213 -0.7911,16.54233 0.2702,8.64247 7.2464,35.26302 11.2586,42.95704 1.5947,3.05624 2.7327,5.85407 2.5285,6.2181 -0.419,0.74678 -6.0471,-5.50072 -6.4932,-7.2078 -0.1591,-0.60809 -2.2864,-3.59084 -4.7272,-6.63069 -2.4407,-3.03975 -5.1881,-6.73733 -6.1037,-8.21713 -5.0704,-8.194 -20.88447,-21.50819 -22.38102,-18.84097 -0.55465,0.98877 0.24669,2.48314 2.32294,4.31731 3.76439,3.32538 18.48008,20.68178 18.90138,22.29384 0.4137,1.58269 -16.94269,14.04723 -21.19565,15.2211 -1.16891,0.32261 -2.40126,1.07877 -2.74116,1.68468 -0.80158,1.42869 -10.19592,6.96011 -13.49317,7.94456 -1.89729,0.56636 -2.99768,-0.11715 -4.28501,-2.66702 -2.58517,-5.11989 -4.24339,-18.25463 -3.60391,-28.49721 0.34135,-5.46153 0.019,-9.40257 -0.80538,-9.90673 -0.75288,-0.46044 -1.47057,-0.55313 -1.59404,-0.20876 -0.25694,0.71657 -2.8797,15.66874 -3.46291,19.74472 -2.1039,14.70229 -2.1625,34.95494 -0.12658,42.74337 2.21193,8.46194 0.23081,4.65088 -4.90878,-9.45487 -7.38441,-20.26696 -15.73947,-36.45647 -18.70305,-36.24039 -3.32169,0.24226 -2.54313,4.32465 2.98733,15.69755 2.9498,6.0658 6.28435,13.18595 7.41096,15.81786 l 2.05049,4.78393 -4.57419,1.96219 c -3.38628,1.45379 -26.20557,6.0472 -38.51978,7.75543 -0.26156,0.0364 -1.0192,-3.1527 -1.68484,-7.08992 -1.1372,-6.72812 0.31723,-17.29082 3.2287,-23.44561 0.61257,-1.30079 0.95526,-2.98395 0.75758,-3.7402 -0.19769,-0.75626 0.48762,-2.77067 1.52473,-4.47694 2.31226,-3.80348 0.28949,-8.1572 -2.14608,-4.61937 -1.81449,2.63575 -8.30092,18.58332 -8.01083,19.69313 0.11728,0.44854 -0.36877,2.5297 -1.08021,4.62675 -1.32628,3.91021 -2.75204,16.8979 -3.26456,29.74722 -0.15902,3.98225 -0.50986,8.31878 -0.77669,9.6366 -0.26925,1.31739 -0.27622,3.37103 -0.0191,4.56289 0.25657,1.19201 0.0632,1.62994 -0.4254,0.97494 -0.48852,-0.65499 -1.39993,-5.38283 -2.02899,-10.50594 -2.50786,-20.42302 -5.81723,-37.31039 -8.89028,-46.62109 -1.5036,0.43216 -2.96171,0.78519 -4.41646,1.12231 0.0893,0.28899 0.12524,0.44687 0.22225,0.75639 2.87575,9.17349 5.75128,29.97761 4.20138,30.40538 -0.50701,0.13992 -1.33007,-0.14239 -1.83064,-0.62624 -0.50069,-0.48382 -3.16822,-0.63895 -5.92445,-0.3438 -2.75599,0.29517 -6.04155,0.31617 -7.30103,0.0466 -1.25959,-0.26957 -7.06842,-1.32674 -12.91003,-2.34775 -19.56169,-3.4191 -19.2363,-3.30357 -20.22539,-7.08747 -0.49877,-1.90751 -0.68567,-4.54873 -0.40627,-5.86693 0.27462,-1.31926 0.94396,-4.71732 1.4841,-7.55162 0.54015,-2.83437 1.35333,-5.25731 1.80913,-5.38313 0.45565,-0.12578 1.35933,-1.10611 2.00986,-2.18076 0.16293,-0.26915 0.42657,-0.62472 0.76237,-1.03881 -0.54552,-1.19642 -1.17598,-2.40968 -1.96208,-3.64196 -0.1181,-0.18508 -0.24575,-0.34093 -0.36804,-0.51326 -0.16733,0.2248 -0.31015,0.42528 -0.49469,0.66797 0.0244,0.0236 0.0479,0.0431 0.0717,0.0662 0.66298,0.50873 1.15841,0.93781 1.12801,1.08792 -0.009,0.0503 -0.47603,-0.4545 -1.12801,-1.08792 -0.0236,-0.0181 -0.057,-0.0381 -0.0813,-0.0565 -0.86052,1.13137 -1.879,2.42239 -2.85109,3.59777 -7.01267,8.47973 -16.88742,24.53876 -21.68799,35.27769 l -2.65275,5.9406 2.23452,-11.03149 c 3.00928,-14.87079 4.64404,-28.3641 4.78928,-38.91967 -1.46271,0.67282 -3.13277,1.33038 -4.92312,1.91553 -0.10919,1.04998 -0.22064,2.06951 -0.32502,3.13116 -0.91278,9.28506 -2.233511,17.03939 -2.932361,17.23487 -1.8584,0.51943 -22.26899,-12.66749 -26.15224,-16.89597 -1.82539,-1.98797 -3.99576,-3.4282 -4.82274,-3.19993 -1.5879,0.43829 -3.85256,-6.15047 -3.45574,-10.05652 0.12119,-1.19278 1.81691,-3.43385 3.76643,-4.98284 3.77764,-3.00143 4.0229,-6.98622 0.36804,-5.97745 -1.20559,0.33277 -5.82124,3.94551 -10.2549,8.0305 -4.43397,4.085 -8.16305,7.45803 -8.28803,7.49513 -0.12484,0.0371 0.29937,-4.1039 0.94159,-9.20192 0.79682,-6.32558 0.99795,-11.43189 0.66201,-14.80362 -0.54287,0.33799 -1.13524,0.69064 -1.69681,1.0339 0.97086,-5.77812 1.72478,-12.41587 1.94774,-16.96964 -0.1952,-0.33561 -0.38074,-0.69701 -0.58313,-1.01425 -0.54199,-0.84963 -1.53236,-1.17881 -2.78896,-1.21563 -0.10758,0.53755 -0.20785,1.12198 -0.29397,1.76082 -0.81221,6.02335 -4.04226,17.28473 -6.86129,24.87979 l -2.11262,-1.22297 c -2.27245,1.26211 -4.71253,2.58057 -7.23411,3.92928 -6.56433,-5.81137 -16.24069,-15.71073 -18.3159,-19.36651 -0.80024,-1.40965 -2.17549,-3.31383 -3.05423,-4.22644 -5.4547303,-5.6648 -5.1613103,-8.14702 1.97403,-16.79775 2.8981,-3.5135 11.73891,-10.7441 16.90109,-14.05951 7e-5,-1e-5 0.005,-0.008 0.005,-0.008 l 0.003,0.003 c 1.05655,-0.67832 2.01263,-1.24951 2.67187,-1.5275 1.10679,-0.46682 1.07709,-0.97907 -0.13145,-2.20286 -1.29534,-1.31157 -2.37436,-1.09405 -6.07742,1.2279 -5.03675,3.15815 -17.1474403,8.78397 -17.1759203,7.97892 -0.009,-0.28613 0.64241,-1.29476 1.4506403,-2.2397 2.16774,-2.53477 7.27783,-11.28441 9.99441,-17.11699 2.74144,-5.88652 2.89819,-8.70172 0.59267,-10.52558 -1.2492,-0.98818 -2.13683,-0.24881 -3.75685,3.13361 -1.16585,2.43429 -2.58312,4.44574 -3.14984,4.4671 -0.56658,0.0214 -1.00081,0.78342 -0.96789,1.69698 0.0325,0.91359 -2.50583,5.80437 -5.6400803,10.86694 -3.13399,5.06258 -6.00037,10.3157 -6.36658,11.67247 -1.00068997,3.7055 -3.90941,4.42038 -4.97331,1.223 -0.50049,-1.50279 -2.48467,-5.21987 -4.41168,-8.26135 -1.9271497,-3.04149 -4.5854197,-8.03835 -5.9053497,-11.10271 -1.31981,-3.06437 -2.70101,-6.27058 -3.06619,-7.12185 -1.10429,-2.57361 4.72468,-2.00735 11.7055397,1.13459 7.73703,3.48244 7.70536,3.48209 7.59736,0.44696 -0.0933,-2.61532 -6.07063,-6.58401 -11.60037,-7.70388 -4.0707597,-0.82451 -4.2385897,-1.79334 -1.0109297,-5.88658 3.8006597,-4.81993 6.7912897,-12.22023 6.6414397,-16.43427 -0.20556,-5.75994 -1.81466,-4.57055 -5.25052,3.87771 -5.2268397,12.85171 -9.8527097,17.75433 -10.1879897,10.80556 -0.0911,-1.89959 -0.94889,-4.78742 -1.90951,-6.42439 -0.79951,-1.3627 -1.23233,-2.07331 -1.59164,-2.21268 -0.169,-1.05362 -0.33283,-2.14824 -0.49709,-3.25396 0.0869,-0.20176 0.14503,-0.31365 0.24615,-0.55992 0.92229,-2.25014 0.64858,-3.89248 -0.26048,-3.98577 -0.17804,-0.0182 -0.38485,0.0319 -0.60702,0.13998 -0.89507,-6.67904 -1.67289,-14.08561 -2.1246,-22.13911 0.24774,-2.04286 0.31988,-5.56998 0.16729,-9.86008 -0.47677,-13.36399 1.09104,-25.47851 3.74252,-28.90735 2.59347,-3.35395 6.74824,-3.05529 10.8667,0.78097 5.1888297,4.83297 10.1270497,7.64921 10.91449973,6.22547 1.10047,-1.98902 -5.66185003,-11.2165 -13.98307973,-19.07673 -4.26411,-4.02804 -13.5324,-10.95307 -20.59344,-15.39301 -7.06116,-4.43991 -12.83866,-8.33218 -12.85505,-8.64691 -0.0108,-0.31512 0.39501,-0.38672 0.90815,-0.15963 0.51327,0.22713 2.33562,1.02976 4.04603,1.78047 10.7819,4.73243 23.4755,7.34693 35.7690497,7.36987 7.84799003,0.0146 13.5543,-0.51846 14.64507,-1.36788 2.9982203,-2.3363 -0.65124,-3.49203 -12.67104,-4.01525 -7.1953697,-0.31318 -11.1638397,-1.02882 -11.6051797,-2.09235 -0.62139,-1.49763 1.2253,-12.01413 3.84052,-21.85425 0.96036,-3.61393 0.63241,-4.94669 -2.47112,-9.97303 -1.97034,-3.19072 -2.99994,-5.54709 -6.19214,-8.76478 -1.74808,-1.67072 -22.50501,-20.38668 4.06038,-8.78935 6.62659,0.27642 15.4004697,3.28641 18.9109797,0.53291 3.51026,-2.75293 4.27547,-3.91501 6.61035,-8.27608 1.73983,-3.24953 4.1584003,-8.36627 5.3747903,-11.36794 l 2.21062,-5.45681 4.56703,7.49022 c 2.51105,4.12107 5.3983,9.31472 6.41679,11.53985 2.18813,4.78098 4.11529,8.50927 5.62572,10.94063 1.09962,0.46027 2.20679,0.93889 3.31235,1.40963 -0.40839,-4.73541 -4.78825,-17.76462 -8.44338,-24.20445 -1.93246,-3.40497 -4.6472,-8.22035 -6.032,-10.70242 -1.38466,-2.48205 -3.21498,-5.05243 -4.06754,-5.7122 -3.40403,-2.63418 -0.0747,-1.24743 7.59498,3.16307 8.80296,5.0622 20.70082,8.74003 27.11774,8.37921 5.56951,-0.31279 3.68407,-2.79108 -3.12115,-4.1012 -2.80632,-0.54028 -6.80735,-1.78089 -8.89029,-2.75541 -2.08296,-0.97458 -6.09676,-2.82395 -8.91896,-4.11102 -9.16288,-4.17863 -9.31997,-5.14404 -2.16761,-13.11157 3.48972,-3.887332 6.76235,-7.182442 7.27234,-7.323212 1.74036,-0.48035 5.83165,-8.27221 4.84426,-9.22646 -1.3122,-1.26837 -4.47665,-0.33404 -4.07471,1.20333 0.17438,0.66794 -0.14983,1.34448 -0.72414,1.50296 -0.57414,0.15849 -2.21467,-3.05267 -3.64214,-7.13412 -1.42749,-4.08141 -3.29573,-8.54466 -4.15357,-9.91902 -2.22215,-3.55991 0.0278,-3.63401 3.52503,-0.1154 1.62502,1.63481 6.20452,4.52142 10.17842,6.41703 l 7.22454,3.44795 7.19827,-4.79127 c 3.95838,-2.6354 9.40298,-6.82769 12.09987,-9.3149 2.69687,-2.48721 5.25221,-4.61645 5.6807,-4.73478 0.42846,-0.11823 2.62727,7.79588 4.88247,17.59095 l 4.09861,17.81198 2.93235,-1.20088 c 2.85763,-1.16715 2.87754,-1.49532 0.67396,-12.93967 -1.24377,-6.45934 -3.97587,-18.54607 -6.07024,-26.85917 -2.09486,-8.31297 -3.468,-14.90919 -3.04948,-14.66118 0.41851,0.24799 2.9889,4.4676 5.71416,9.37873 6.58754,11.87167 12.63952,18.63764 20.758341,23.21476 7.1943,4.05591 9.97747,3.63879 4.23005,-0.63359 -5.34125,-3.97039 -14.026391,-14.95917 -15.780251,-19.97064 -1.88059,-5.37342 -1.48222,-5.84737 9.996791,-11.95733 12.53979,-6.67459 14.3383,-11.35935 11.11763,-28.93925 l -2.07201,-11.29182053 0.003,-0.003 2.84155,7.03099103 c 4.43678,10.9764395 9.1903,18.4048795 13.35455,20.8719295 4.06879,2.41043 14.96464,3.20655 21.01402,1.53734 2.01219,-0.55548 3.74212,-0.67954 3.84769,-0.27505 0.53952,2.06417 0.22391,16.65845 -0.47081,21.73882 -1.13774,8.32452 -0.89961,13.00615 0.6405,12.5811 3.23787,-0.89371 5.92248,-13.40585 6.83021,-31.82973 0.33979,-6.89643 0.88013,-13.63185 1.19972,-14.96326 0.31857,-1.33145 0.33433,-3.38667 0.0382,-4.5678 -0.29816,-1.18042 -0.20046,-3.1173585 0.21987,-4.3074895 0.54948,-1.55584 1.43378,0.94406 3.14267,8.8973995 3.60464,16.7786 8.37092,28.63858 14.40129,35.84253 5.4883,6.55655 8.23836,7.78412 5.707,2.54667 -5.4182,-11.21132 -7.29432,-15.43181 -9.57857,-21.56691 l -2.5691,-6.90081 6.49326,-0.70728 c 19.60209,-2.1185 30.29394,-11.00208 33.17844,-27.57383053 0.78994,-4.53809997 1.50039,-6.84257897 1.8832,-6.88363897 z m -6.90431,47.8612495 c -0.0558,10e-4 -0.11351,0.0143 -0.17206,0.0394 -1.57171,0.68482 -4.30098,10.00982 -8.89029,29.39604 -1.62337,6.85766 -4.35859,15.52517 -6.46935,20.50355 -1.86886,4.4079 -0.71549,6.00451 2.2632,3.13116 3.39927,-3.27897 4.96221,-7.48508 7.46114,-20.09835 l 2.31817,-11.70438 3.73296,16.18132 c 2.05566,8.90157 4.43783,17.47362 5.29115,19.04723 0.94819,1.74892 1.62015,2.62152 2.01226,2.67685 0.86268,0.12187 0.37161,-3.71834 -1.51039,-10.91851 -2.5353,-9.69936 -3.38676,-17.3896 -4.47859,-40.42508 -0.22813,-4.81226 -0.66173,-7.48046 -1.39809,-7.79719 -0.0522,-0.0225 -0.10434,-0.0334 -0.16011,-0.032 z m -75.40248,10.52069 c -0.47503,0.14249 -0.27292,4.00324 0.44928,8.59288 1.74816,11.10987 1.94782,40.19853 0.30351,44.280682 -0.91908,2.2819 0.53743,3.36873 2.15088,1.60611 1.82427,-1.99275 3.87985,-17.289282 3.17373,-23.610162 -1.54868,-13.86035 -1.38817,-13.95549 4.09144,-2.4779 4.88307,10.22838 14.24405,23.456792 16.21522,22.912702 0.48847,-0.13484 0.7544,-0.76579 0.58789,-1.40228 -0.16632,-0.63644 -1.11483,-2.280382 -2.10547,-3.651792 -2.22157,-3.07506 -14.08182,-25.84776 -16.77682,-32.21037 -2.88088,-6.80169 -6.63119,-13.42371 -7.87458,-14.00794 -0.082,-0.0384 -0.15341,-0.0479 -0.21269,-0.0319 l -0.003,0 z m 141.36981,13.59781 0,0.003 c -0.0696,-0.0136 -0.14772,-0.008 -0.23423,0.0197 -1.0384,0.33246 -3.37917,3.6918 -8.85203,12.33553 -9.97662,15.75665 -14.56437,20.97135 -19.71156,22.39205 -4.75004,1.311082 -6.60427,3.978952 -3.46292,4.985302 1.04813,0.33569 3.16298,0.27276 4.69609,-0.13998 3.64185,-0.97914 12.6307,-9.223372 15.85194,-14.538372 l 2.53563,-4.18715 -1.12083,6.16897 c -0.61829,3.39313 -1.53957,7.88569 -2.04094,9.985322 -0.50087,2.09966 -1.12296,6.99087 -1.38373,10.86942 -0.40766,6.06568 -0.16261,7.3094 1.75415,8.89247 0.90306,0.74594 1.43033,1.13516 1.65618,1.03636 0.29003,-0.12686 0.0855,-1.06154 -0.44452,-3.08941 -0.5596,-2.14037 -0.77722,-4.97201 -0.48276,-6.2967 0.29447,-1.32465 0.95827,-4.95721 1.47216,-8.06978 0.9066,-5.491652 7.22704,-25.827362 8.5796,-27.605752 0.84443,-1.11011 2.08516,-10.38406 1.6251,-12.14398 -0.0937,-0.35845 -0.22879,-0.57667 -0.43733,-0.61641 z M 57.581989,90.094278 c -0.0438,0.005 -0.0798,0.0278 -0.10987,0.0613 -0.1447,0.16339 -0.13414,0.65675 -0.043,1.46609 0.15514,1.38233 1.50548,4.77424 3.00167,7.53443 6.24912,11.528902 7.69272,14.497272 10.85236,22.303662 1.82483,4.5088 4.44996,12.42518 5.83125,17.59342 1.01508,3.79763 1.90543,6.374 2.64558,7.73088 0.60991,0.0156 1.21124,0.0458 1.82346,0.0737 0.20951,-0.70486 0.36831,-1.74045 0.47081,-3.18027 0.36417,-5.11473 -1.55924,-12.79294 -5.05217,-20.15237 -1.44209,-3.03852 -3.57686,-7.89733 -4.74147,-10.79819 l -2.11504,-5.27508 3.75447,3.52163 c 5.3389,5.00371 18.14113,12.37618 22.68216,13.0649 3.625861,0.54998 3.716871,0.48451 1.59882,-1.14441 -1.23709,-0.95123 -2.94001,-1.96005 -3.78553,-2.24215 -0.8456,-0.28213 -4.43368,-3.10266 -7.97258,-6.26476 -3.539,-3.1621 -6.78242,-5.94131 -7.2102,-6.18128 -2.71012,-1.52007 -17.20085,-13.489122 -19.40328,-16.026602 -1.25074,-1.44124 -1.91894,-2.12049 -2.22736,-2.08497 z M 171.705,98.299108 c -0.48702,0.13441 -0.97772,3.636572 -1.08976,7.784912 -0.302,11.17877 -0.75422,14.98732 -2.4759,20.86456 -1.09574,3.74063 -1.08747,5.18213 0.0263,4.87479 2.3504,-0.64872 5.1274,-6.739 5.04739,-11.0708 -0.0385,-2.08983 0.25648,-5.34143 0.65961,-7.22745 l 0.73608,-3.43075 1.6944,3.3227 c 3.37449,6.61399 4.11985,7.9228 6.20409,10.86941 2.61186,3.69302 3.99053,3.47538 3.69948,-0.57957 -0.12133,-1.69132 -2.23765,-5.81087 -4.70563,-9.15526 -2.468,-3.34435 -5.48286,-8.42696 -6.69877,-11.29181 -1.21592,-2.86484 -2.60997,-5.095222 -3.09726,-4.960732 z m 53.48031,4.766722 c -1.12365,0.31015 -2.80555,3.82686 -4.64828,9.72009 -1.58849,5.07998 -4.54877,9.6401 -6.67727,10.28739 -0.84944,0.25827 -2.45329,1.34594 -3.56567,2.41897 -1.5844,1.52838 -1.63116,2.23296 -0.21987,3.25887 1.50825,1.09635 2.46787,0.57488 5.89339,-3.21221 2.2505,-2.48792 4.26997,-4.9244 4.49055,-5.41505 0.22024,-0.49081 1.15708,-1.92909 2.07918,-3.19502 1.5968,-2.1921 1.77262,-1.76156 3.76404,9.04967 1.40762,7.64247 2.4811,11.09077 3.6278,11.03395 0.52133,-0.026 1.05597,-0.77531 1.64661,-2.18567 0.94621,-2.25965 -5.06324,-32.1273 -6.39048,-31.76099 z m -110.76525,4.53589 c -0.42337,0.13171 0.43855,5.73616 1.91906,12.46814 1.61644,7.34993 2.27436,13.00301 1.64421,14.12582 -1.39083,2.47852 0.001,7.57152 1.92384,7.04081 0.83305,-0.22995 1.53258,-3.20334 1.55581,-6.61105 0.0662,-9.75056 0.36751,-12.96417 1.01329,-10.90625 1.07446,3.42268 10.08037,8.82119 13.25655,7.94453 2.83227,-0.78177 2.71186,-0.94888 -3.04706,-4.24362 -4.23519,-2.42305 -7.67403,-5.86101 -11.739,-11.73141 -3.16275,-4.56724 -6.09937,-8.20496 -6.5267,-8.08697 z m 219.41782,3.18763 c -0.065,6e-4 -0.1493,0.0142 -0.2485,0.0418 -1.4082,0.39122 -6.0966,3.42062 -11.3184,7.36006 -13.278,10.01681 -25.4255,17.17925 -31.20677,18.39891 -2.44744,0.51633 -4.38669,1.59391 -4.4547,2.47301 -0.28842,3.74907 19.15687,-1.92257 28.89817,-8.42833 0.9781,-0.65323 0.5678,0.81769 -0.9129,3.27113 -6.1906,10.25715 -9.5764,27.38503 -5.8504,29.5925 0.3142,0.18609 0.5718,0.26501 0.7767,0.22838 0.6149,-0.10987 0.7597,-1.2768 0.5664,-3.85561 -0.1911,-2.54676 0.1251,-4.75958 0.7026,-4.91898 0.5777,-0.15943 0.8968,-0.8758 0.7098,-1.59138 -0.1887,-0.71595 0.123,-2.25336 0.6907,-3.41356 0.5677,-1.16021 2.0679,-4.64463 3.3338,-7.74317 2.1999,-5.38446 8.2526,-14.54571 12.4823,-18.89008 2.8853,-2.96367 6.978,-11.5132 5.9746,-12.48288 -0.03,-0.0285 -0.078,-0.0421 -0.1434,-0.0418 z m -53.08832,6.28687 c -0.11782,-0.0187 -0.24976,-0.0156 -0.39671,0.009 -1.1756,0.20561 -3.23611,1.81605 -5.41064,4.69797 -6.27891,8.32172 -13.42545,16.16417 -16.81506,18.45294 -1.72846,1.16708 -3.18944,2.95618 -3.24782,3.97596 -0.13964,2.45688 5.93256,-0.56764 11.28731,-5.62134 2.12076,-2.00153 4.11241,-3.70586 4.42363,-3.79176 0.31122,-0.0859 -0.0564,2.7964 -0.81494,6.4072 -1.22944,5.85038 -0.82782,18.78265 0.57118,18.39647 0.29811,-0.0822 1.16271,-1.39434 1.91906,-2.91259 0.75647,-1.51825 1.08587,-3.86125 0.73367,-5.20878 -1.0326,-3.95037 3.56154,-22.84052 7.45638,-30.66077 1.19412,-2.39774 1.11874,-3.61562 0.29394,-3.74512 z m -84.93324,18.18282 -1.05155,3.86789 c 0.32956,0.378 0.50092,0.58266 0.87469,1.00936 1.14826,1.31079 2.60794,2.23254 4.1512,3.05256 -0.77677,-1.44552 -1.51935,-2.87167 -2.02422,-3.91211 l -1.95012,-4.0177 z m 17.31932,15.73436 c -0.72917,0.0208 -1.45759,0.0736 -2.18196,0.15227 -21.91489,3.61389 -37.06107,22.33644 -55.85341,32.78752 -2.53725,3.2048 -5.64143,4.30904 -8.82815,4.21416 -7.07818,-0.84304 -14.26423,-7.05232 -16.30363,-9.05948 0.0763,0.42893 0.16911,0.83956 0.26767,1.24264 -0.5918,-0.5162 -1.11947,-0.99793 -1.45545,-1.3286 1.58879,8.92944 8.09461,12.17907 15.40983,12.44849 5.31448,0.44643 11.16554,-0.79246 15.96428,-2.68419 -5.19808,14.39984 2.46595,29.40538 0.69066,44.16528 0.33344,-1.65106 0.83798,-2.55873 1.42196,-2.97644 -0.0398,1.02211 -0.1092,2.04482 -0.23181,3.06485 0.40817,-2.02112 1.07247,-2.93688 1.82586,-3.1901 0.97149,0.37126 1.94055,1.36709 2.6384,2.25936 -0.37577,-0.73454 -0.67532,-1.38537 -0.81972,-1.85169 0.75228,0.48251 1.46384,1.23969 2.00987,1.93763 -0.76874,-1.50291 -1.03561,-2.45029 -0.97745,-2.92732 0.0628,0.0938 0.12551,0.18273 0.16251,0.28979 -0.0376,-0.20884 -0.0643,-0.37083 -0.0933,-0.54029 0.19419,-0.36812 0.67735,-0.19389 1.0133,0.19154 0.10705,0.24008 0.21298,0.46992 0.31308,0.68518 -0.0193,-0.10582 -0.0258,-0.15371 -0.043,-0.25049 0.0319,0.0918 0.051,0.18546 0.0574,0.28242 0.17103,0.36706 0.32331,0.68618 0.47081,0.97987 -0.22386,-0.36524 -0.32212,-0.51148 0.0216,0.0418 0.60987,1.2096 0.9936,1.79334 1.02524,1.69697 0.93234,1.59215 1.55135,2.81922 -0.66438,-0.15718 -0.0231,0.25622 0.0205,0.56906 0.10273,0.91601 -0.24525,-0.35827 -0.52093,-0.74644 -0.73607,-1.07318 -4.712,-7.49604 3.44192,5.23284 -0.0693,0.69254 0.51079,0.78391 0.58869,1.10778 -0.3059,-0.26031 -0.0758,-0.13733 -0.10407,-0.22234 -0.17206,-0.35118 -0.005,-0.007 -0.005,-0.007 -0.009,-0.0121 -0.18902,2.10522 3.38553,7.48419 7.74554,12.52464 0.17971,0.23553 0.35401,0.46931 0.54009,0.70726 -2.98661,-3.24851 -5.85281,-6.77979 -7.20542,-9.43276 1.13256,3.22955 12.09984,19.72788 21.81705,22.41417 -10.67979,15.75903 -16.52844,36.37547 -15.26166,56.09315 1.54477,5.2811 1.29902,7.51228 0.1003,7.88315 -3.49887,-1.20924 -10.23399,-9.26218 -12.62564,-13.44064 -5.2986,-6.82434 -11.9279,-17.5675 -20.85631,-17.70885 -2.41354,-0.29509 -4.99729,0.16626 -7.7766,1.70188 -2.49857,1.85427 -4.22795,2.74815 -5.41543,2.9445 -2.84408,-1.23179 0.54023,-10.63077 -0.17446,-16.3213 -0.23525,-14.64219 -5.70782,-28.36897 -9.10059,-42.37007 -0.41382,-0.43813 -0.7312,-0.81588 -1.01568,-1.17142 0.3812,1.24191 0.7432,2.49213 1.0802,3.74756 2.82669,12.38679 0.63719,2.62452 -1.18536,-3.8679 -1.1084,-1.41639 -1.21661,-2.19251 -0.77672,-2.59579 -0.0456,-0.14041 -0.0976,-0.31663 -0.14098,-0.4445 0,0 0.003,0 0.003,0 0.0492,0.14686 0.0946,0.29501 0.1434,0.44205 1.00832,-0.91305 4.79113,0.0611 5.94358,-0.31191 0.40215,0.28874 1.07723,0.23928 0.34414,-0.27257 0.0501,-0.22104 -0.11931,-0.55977 -0.60702,-1.0732 2.45864,0.83232 -7.73759,-14.27373 -14.30092,-18.7673 4.93492,-3.11512 6.94768,-15.42838 2.20584,-22.95936 1.32365,3.07679 1.71559,5.83589 1.41479,8.25398 -0.24951,-2.96523 -1.0678,-5.90244 -2.60256,-8.33994 5.50945,12.80653 -4.92878,20.20337 -15.706161,19.6956 -1.56127,-0.15829 -3.11792,-0.48086 -4.62199,-0.98232 -5.34422,-0.54127 -11.09608,-1.38763 -16.86286,-1.80502 -12.15277,-0.99955 -24.48972,-0.29027 -33.31943,9.17 -4.76302,6.2568 -3.71439,5.21063 -0.8723,2.83891 -4.04425,5.526 3.0149,-2.54148 8.28565,-4.7569 3.08287,-1.53475 12.07827,-4.03914 16.78875,-3.99069 1.93574,0.28171 2.53758,1.29829 0.46126,3.51672 -6.6129,9.99706 -10.77785,22.97094 -10.41501,35.20648 0.27286,-3.05509 0.90402,-5.94592 1.68724,-8.77462 -0.40342,2.96231 -0.58394,5.93438 -0.49708,8.86302 0.7854,-8.79389 4.4372,-16.26208 6.62706,-24.63913 1.88687,-12.22633 10.37044,-14.08164 19.60643,-13.44802 4.22257,0.37913 8.54852,1.19923 12.43204,1.73626 0.0915,-0.021 0.18123,-0.0345 0.27246,-0.0541 0.29928,0.0438 0.62327,0.0994 0.9177,0.13997 1.66433,-0.38157 3.2694,-0.52237 4.81796,-0.46414 9.336691,0.99645 16.407371,9.42407 20.648401,18.13369 -6.30643,-2.50103 -13.13406,-4.02093 -20.00075,-4.32222 -12.672531,-0.81111 -25.530351,2.39968 -35.367551,10.91609 -3.29533,2.8046 -12.04791,15.29429 -9.45429,11.68963 0.3812,-0.0651 0.7435,0.014 1.09218,0.19648 -0.43517,0.60804 -0.45383,0.64924 0.0121,0.005 3.86262,2.05056 6.00883,18.11864 12.58261,22.46573 10.79243,7.64284 -4.59976,4.1171 -10.13061,6.2967 0.42179,0.0135 0.84248,0.0441 1.26423,0.0663 -0.0213,0.008 -0.0483,0.0139 -0.0693,0.0221 0.63245,0.0197 1.26529,0.0582 1.89755,0.0983 12.12075,1.01364 24.06381,5.75373 33.39113,13.79429 5.333681,6.34355 5.038891,5.20299 2.8535,1.99656 6.781561,7.71956 -1.69131,-4.68679 -6.56494,-9.62186 0.63746,0.0797 1.27625,0.12969 1.91666,0.15963 13.335171,1.26593 27.373951,-8.34418 29.294911,-22.13422 2.01214,9.30022 5.03029,29.71181 -1.75177,38.15347 -8.71343,8.54397 -6.7251,22.28088 -2.41615,32.54438 8.61413,9.4628 -3.68522,20.91626 1.23796,32.35284 2.86954,12.46274 15.11575,19.45415 27.26113,20.09097 5.01922,0.43453 10.07395,-0.20254 14.49451,-1.99412 1.94221,-1.59003 3.65752,-2.2835 5.19795,-2.34038 7.55321,1.40474 10.65681,18.59599 16.08376,17.70638 0.47067,0.15141 0.95584,0.18767 1.46259,0.0492 -7.27796,-14.35523 -12.87491,-34.64329 -0.43735,-47.64762 5.95175,13.27337 14.74363,25.13486 25.35643,34.83811 -0.65023,-0.95295 -1.2882,-1.91638 -1.92145,-2.88312 1.02031,1.00869 2.05428,2.00238 3.1116,2.96908 -11.50275,-16.85797 -20.42628,-35.90013 -24.0205,-56.26015 -5.25139,-26.69737 1.35966,-55.7334 19.20253,-76.12764 13.93377,-14.41056 34.10956,-21.19784 53.6954,-19.79381 6.54627,0.58106 13.01124,2.07978 19.138,4.52359 -2.34371,-0.95304 -4.73119,-1.80745 -7.13851,-2.59823 2.82632,0.71482 5.6104,1.60089 8.32626,2.68419 -9.45061,-3.843 -19.47059,-6.46205 -29.63187,-7.07273 -2.44354,-0.18457 -4.89549,-0.25494 -7.35122,-0.19892 -0.47949,-0.10542 -1.00391,-0.14332 -1.54383,-0.15717 -4.90185,-0.80832 -12.93461,3.08189 -17.16877,3.22693 -0.85063,-0.18369 -1.41661,-0.65791 -1.57731,-1.56926 1.89744,-3.30826 0.86502,-9.1558 0.26766,-14.0104 -0.0411,8.30119 -0.60975,5.49812 -0.7767,0.53537 -0.0421,0.43918 -0.095,0.88616 -0.1649,1.34579 -0.0857,-0.66279 -0.17025,-1.33331 -0.24854,-1.96955 -0.0411,8.29653 -0.60935,5.50483 -0.77671,0.54763 -0.079,0.81931 -0.19368,1.66649 -0.36803,2.55404 1.18746,3.01077 -1.62124,11.85403 -3.33865,14.70048 -0.007,-0.18097 -0.0245,-0.32831 -0.0143,-0.56729 1.66497,-5.90305 -0.61075,-16.10084 -7.75509,-16.30657 -0.0259,0.0139 -0.046,0.0325 -0.0717,0.0466 -0.3597,-0.0679 -0.72775,-0.12147 -1.11607,-0.13265 -6.19512,3.33615 -4.18863,13.20927 -0.44689,17.89548 9.30589,3.85353 -6.89626,6.87733 -9.21292,12.48534 -1.83691,2.02695 -3.80276,2.85495 -5.8217,2.8561 -7.55195,-1.16652 -15.65899,-12.97662 -20.61971,-18.06493 -0.30073,0.0836 0.26369,1.14349 1.33115,2.69892 -0.9037,-1.04422 -1.75198,-2.00067 -2.51893,-2.78734 -0.0391,0.0108 -0.0628,0.0411 -0.074,0.0834 -0.48039,-0.67977 -0.91633,-1.31866 -1.30487,-1.90572 -0.0756,-0.29663 -0.56588,-1.30905 -1.58448,-3.05013 -0.79741,-4.48788 0.62416,1.25941 2.06247,-4.75197 12.58779,-7.55526 26.63415,-12.71075 41.15815,-14.33948 1.85882,-0.68093 3.45317,-0.98355 4.81797,-0.98232 2.87545,0.4508 4.43359,2.58338 4.85619,5.76625 0.0181,-1.09524 0.052,-2.17443 0.13144,-3.168 0.16037,0.26601 0.30334,0.55077 0.43017,0.85216 0.0121,-0.0874 0.0206,-0.17916 0.0359,-0.26277 0.009,0.14175 0.0243,0.28306 0.0336,0.42486 0.26435,0.67289 0.44804,1.4275 0.55683,2.25197 0.0259,-1.59058 0.0999,-3.15026 0.26288,-4.45238 0.0553,-0.0483 0.12079,-0.084 0.18163,-0.12524 0.0604,0.65912 0.10907,1.319 0.15535,1.97938 0.0256,-0.13999 0.0591,-0.26905 0.0933,-0.39785 0.0284,0.0728 0.0558,0.1484 0.10515,0.20384 0.0305,-0.28036 0.0437,-0.49114 0.0502,-0.66798 0.31677,-0.783 0.86679,-1.2693 1.74221,-1.35807 0.13486,0.0283 0.26347,0.0502 0.40867,0.0909 -0.17786,-0.0474 -0.2208,-0.052 -0.38,-0.0933 0.43982,-0.0399 0.95117,0.009 1.56774,0.18173 -0.44112,-0.11756 -0.61221,-0.14963 -0.94159,-0.23084 1.97392,0.21532 4.74591,0.0476 4.69368,-2.33302 -4.1348,-14.99397 -16.29053,-25.76884 -23.17686,-39.32979 -2.71099,-10.48313 6.59357,-12.93932 16.45419,-12.22747 6.02947,0.58605 12.09506,2.27844 15.60101,4.00051 0.1929,-0.0814 0.25425,-0.19645 0.22225,-0.33399 0.32229,0.14102 0.67894,0.28048 0.96789,0.4224 2.43955,-1.03097 -14.32948,-6.88726 -19.29812,-8.8139 -1.54521,-0.40342 -3.13132,-0.60877 -4.72237,-0.67535 -0.98859,-0.0907 -1.98017,-0.14367 -2.97297,-0.1154 z m 13.17291,59.63688 c 2.69631,0.90379 0.74332,-0.28827 0,0 z m -1.18776,-0.0884 c 2.6963,0.90378 0.74331,-0.28826 0,0 z m -2.39943,2.12919 c -0.26842,1.46962 -0.0814,3.54925 0.20075,5.84236 0.001,-0.28707 0.0121,-0.39527 0.0121,-0.70973 -0.004,-1.71288 -0.093,-3.42434 -0.21269,-5.13263 z m -0.59985,2.59823 c -0.021,1.2949 -0.0164,2.58371 0.0239,3.7795 0.13184,-1.37499 0.12604,-2.64293 -0.0239,-3.7795 z m -0.55684,-2.25197 c -0.022,-0.0555 -0.0464,-0.10758 -0.0693,-0.16208 -0.20384,1.44834 -0.029,3.4112 0.23659,5.56977 0.001,-0.28692 0.0121,-0.39546 0.0121,-0.70973 -0.004,-1.56831 -0.0775,-3.1333 -0.17925,-4.69796 z m -0.63093,2.15374 c -0.0214,1.30175 -0.0191,2.60002 0.0216,3.80158 0.13319,-1.38301 0.13009,-2.65958 -0.0216,-3.80158 z m -103.25391,18.31297 c -10e-4,0.001 -0.004,0.001 -0.005,0.003 0.24194,0.74622 0.49818,1.60362 0.77671,2.59579 0.028,0.0359 0.0759,0.0837 0.10515,0.12039 -0.27951,-0.91058 -0.57752,-1.81479 -0.87708,-2.71858 z m 50.11537,-1.09282 c 0.23659,0.31761 0.30305,0.3853 0.47796,0.61149 -0.16478,-0.25292 -0.32959,-0.50355 -0.58312,-0.82761 0.039,0.076 0.0634,0.13693 0.10516,0.21612 z m 0.32741,-2.48529 c -0.005,-0.009 -0.009,-0.0218 -0.0143,-0.0319 0.0108,0.059 0.0121,0.0779 0.0239,0.13997 0.001,-0.0365 -0.007,-0.0719 -0.009,-0.10798 z m -1.24751,-0.36838 c 0.0272,0.1509 0.0352,0.21732 0.067,0.39047 0.007,-0.13373 -0.0235,-0.265 -0.067,-0.39047 z m -0.37521,2.55161 c 0.10206,0.19945 0.15508,0.3435 0.27723,0.56482 1.18275,1.8088 0.76127,0.76297 -0.27723,-0.56482 z m 163.66239,-70.69049 c -0.1961,0.003 -0.3555,0.0209 -0.4755,0.0541 l 0,0 c -1.6352,0.45146 -1.6067,0.94544 0.184,3.17537 1.1677,1.45408 3.1892,2.69269 4.4929,2.75295 1.3037,0.0603 2.5041,0.61982 2.6671,1.24266 0.1627,0.62287 0.9647,0.96671 1.7828,0.76375 0.8179,-0.203 2.7165,0.14279 4.2181,0.76867 2.5688,1.07064 2.4083,1.39329 -2.6981,5.4347 -2.9854,2.36252 -5.2335,5.04257 -4.9948,5.95535 0.2684,1.02741 0.6968,1.4616 1.3168,1.29174 0.6199,-0.16966 1.4329,-0.94232 2.4783,-2.33055 0.8842,-1.17403 4.496,-3.71116 8.0275,-5.63854 7.7092,-4.2077 8.8737,-5.66254 5.2314,-6.53491 -1.5086,-0.36135 -3.6314,-1.16056 -4.7176,-1.77556 -2.8555,-1.61689 -10.4663,-3.9796 -14.9032,-4.83549 -1.1092,-0.21393 -2.0189,-0.33353 -2.6073,-0.32416 z m -56.77587,6.83206 c -0.7509,-0.0181 -1.74197,0.12807 -2.94192,0.45924 -2.31758,0.63971 -5.39231,0.87978 -6.83023,0.53537 -0.77454,-0.18564 -1.31767,-0.26212 -1.67767,-0.20875 -0.60079,0.0888 -0.68413,0.54292 -0.43974,1.47841 0.29638,1.13363 1.9971,1.79501 4.23245,1.64538 2.05463,-0.13794 3.79464,-0.0271 3.86679,0.25049 0.0725,0.27749 -0.58216,2.38002 -1.45782,4.67094 -0.87542,2.29096 -1.20517,4.77301 -0.7289,5.51331 0.11998,0.18668 0.29897,0.20447 0.51382,0.081 0.64435,-0.37011 1.63963,-2.03109 2.55714,-4.38116 1.2125,-3.1057 2.7854,-6.27504 3.49398,-7.04328 1.47239,-1.59616 1.3901,-2.64939 0.0813,-2.92732 -0.19632,-0.0418 -0.41887,-0.0677 -0.66916,-0.0737 z m -77.86405,0.49116 c 6.02551,6.11466 11.34988,12.91413 16.37054,19.90926 1.11596,3.69836 13.64989,15.19113 8.55332,15.44703 -0.52949,-0.089 -1.1568,-0.2405 -1.89278,-0.4617 -0.30072,-0.0108 -0.60423,-0.009 -0.90575,-0.0173 -0.10488,-0.0299 -0.17235,-0.0359 -0.282,-0.0688 -17.60311,-0.68192 -36.6277,4.05538 -49.87878,16.46375 -6.85846,-4.33963 -6.63797,-21.45077 -4.23484,-30.22855 5.24602,-12.59598 21.23754,-14.82961 32.27029,-21.04384 z m 121.79442,4.46958 c -2.0071,-0.0382 -5.3239,0.19711 -9.0097,0.67535 -5.8974,0.76517 -12.1752,0.92445 -13.952,0.35608 -1.347,-0.43071 -2.326,-0.60826 -2.9324,-0.53535 -0.1262,0.0158 -0.236,0.0361 -0.32981,0.0737 -0.65882,0.25889 -0.52715,1.05361 0.40631,2.37232 1.3878,1.96093 10.1268,3.46978 14.0237,2.42142 1.5715,-0.42335 3.719,-0.49391 4.7701,-0.15717 1.4763,0.47288 1.3254,0.99453 -0.6667,2.29128 -4.2557,2.7699 -9.7679,10.32002 -9.201,12.60075 0.3464,1.39279 0.9741,1.94389 1.6657,1.72644 0.6915,-0.21741 1.4472,-1.20506 2.0481,-2.8954 0.9819,-2.76177 11.6522,-12.51335 14.5758,-13.32031 2.5316,-0.69876 5.0276,-2.83814 4.7128,-4.04227 -0.078,-0.29822 -0.3491,-0.51602 -0.7217,-0.62376 -0.3726,-0.10772 -0.8485,-0.10516 -1.3359,0.0294 -0.975,0.2691 -1.9012,-0.005 -2.0577,-0.60413 -0.059,-0.22458 -0.7913,-0.34554 -1.9956,-0.36837 z M 8.7691087,174.14924 c -0.10408,0.004 -0.18828,0.0108 -0.25094,0.0319 l -0.003,0 c -0.0639,0.0196 -0.1065,0.0474 -0.12672,0.0834 -0.68051,1.23035 5.6822603,8.16185 9.2893903,10.1204 4.79747,2.60497 12.1288,8.52964 16.17696,12.95439 1.7536,0.26434 3.1929,0.36867 3.91459,-0.56975 0.21526,-0.27989 0.52546,-0.56758 0.88425,-0.85708 -1.62431,-2.01087 -3.35423,-3.88655 -5.1167,-5.46417 -2.11853,-1.89623 -2.93591,-3.17686 -1.81389,-2.84875 4.06648,1.18922 9.32541,1.87585 14.31047,2.10956 -1.39042,-1.98884 -2.81108,-3.93944 -4.25871,-5.85957 -5.87325,-1.41398 -12.74877,-3.4811 -20.082,-6.09778 -4.59128,-1.63833 -8.74809,-2.87789 -11.15349,-3.37182 -0.8017103,-0.165 -1.4069503,-0.24414 -1.7708803,-0.23084 z m 156.7772313,9.9976 c -1.48873,2.52898 -1.87471,2.80811 -1.69441,2.18566 0.51671,-0.7749 1.0873,-1.49902 1.69441,-2.18566 z m -1.75176,0.44941 c -0.19622,0.50864 -0.30275,0.7284 -0.47082,1.14195 -0.0681,0.10097 -0.1127,0.15897 -0.16967,0.23821 0.22124,-0.47517 0.33967,-0.76778 0.64049,-1.38016 z m -2.91804,3.87773 c -0.0239,0.0271 -0.0481,0.0638 -0.0382,0.0147 0.0121,-0.005 0.0258,-0.009 0.0382,-0.0147 z m -1.37415,9.96075 -0.0311,2.64491 0.11958,2.6449 c 0.0433,0.3385 0.0545,0.4676 0.0909,0.7613 0.0915,1.16993 0.20916,2.34096 0.35131,3.51427 -0.12848,-0.1801 -1.01809,-6.7819 -0.53055,-9.56538 z m 1.19014,0.086 -0.0312,2.64738 0.11716,2.64245 c 1.13915,8.90524 -0.16983,1.99584 -0.2151,-2.83402 0.0181,-0.73857 0.0518,-1.46932 0.098,-2.19548 0.0108,-0.0837 0.0174,-0.18243 0.031,-0.26033 z m 60.01657,10.81784 c 0.3559,0.10151 0.5286,0.22148 0.5664,0.32909 -0.14341,0.0701 -0.44112,0.0121 -0.5664,-0.32909 z m -0.57118,0.10569 c 0.0108,0.0286 0.0156,0.053 0.003,0.0762 0,0 -0.003,-0.003 -0.003,-0.003 -0.008,-0.0187 -0.004,-0.046 0,-0.0737 z m 1.19016,0.0884 c 0.0108,0.0286 0.0156,0.053 0.003,0.0762 0,0 -0.003,-0.003 -0.003,-0.003 -0.007,-0.0182 -0.004,-0.0469 0,-0.0737 z m 6.96644,1.2058 0.12187,0.0786 -0.12187,-0.0786 z m -7.86981,0.40275 c 0.0293,0.0324 0.0623,0.0603 0.0907,0.0933 0.0589,1.46659 -0.0678,1.58728 -0.0907,-0.0933 z m 1.20448,1.05354 c 0.0226,0.0564 0.046,0.11095 0.0813,0.15718 -0.0231,0.20994 -0.053,0.23539 -0.0813,-0.15718 z m -156.729441,2.41161 c -1.43485,2.24833 -2.75263,4.62925 -3.91936,7.11939 0.83001,-3.1413 2.18003,-5.45628 3.91936,-7.11939 z m -37.88884,6.72892 0.003,0.003 c -0.12389,0.005 -0.28217,0.0399 -0.47079,0.0958 l 0,-0.003 c -2.82568,0.84647 -12.42513,7.21885 -15.25687,10.2309 -0.86157,0.91651 -2.6600603,2.32421 -3.9982403,3.12624 -3.23045,1.93635 -1.70023,2.97175 6.8732403,4.65868 3.927,0.77285 8.10522,2.10259 9.28699,2.95679 2.7939,2.02033 3.99949,1.9718 3.92415,-0.15472 -0.0337,-0.94447 -2.95115,-2.82592 -6.48129,-4.17979 -6.03852,-2.31601 -6.27974,-2.57052 -4.13207,-4.37133 1.25576,-1.05274 2.96729,-1.96001 3.80704,-2.01377 0.83989,-0.0537 1.50786,-0.62503 1.48649,-1.26965 -0.0232,-0.64452 0.9605,-1.54434 2.18912,-1.99658 1.22838,-0.45222 2.80679,-2.24512 3.50592,-3.98822 0.8031,-2.00458 0.93974,-2.77824 0.24377,-3.01328 -0.232,-0.0783 -0.55652,-0.0969 -0.97984,-0.081 z m 141.718721,7.3748 c 2.29337,5.31789 3.33275,5.50083 0,0 z m -1.71114,1.53733 c 0.0596,0.0384 0.13921,0.36029 0,0 z m 1.18776,0.0884 c 0.0597,0.0384 0.13922,0.3603 0,0 z m -70.974071,0.0712 c 1.95514,0.0147 3.909711,0.11917 5.857541,0.27259 3.44397,0.31705 6.85126,0.82633 10.16169,1.46857 0.94149,2.37154 1.83311,4.79554 2.63362,7.25202 -1.04205,-3.43026 -1.87409,-6.56275 -1.6944,-7.11203 2.14202,8.1692 2.51283,6.60415 4.43079,12.60322 0.10057,0.39062 0.15944,0.64184 0.24377,0.97986 0.2925,1.2698 0.53376,2.54936 0.73846,3.83351 -0.23029,0.12268 -1.58869,-3.61098 -2.88933,-7.64002 1.58791,5.48477 2.57148,11.13792 2.25842,16.86651 -0.70699,13.77097 -13.9328,22.8708 -26.644551,22.42645 -17.80828,-2.7504 -27.18504,-21.88475 -30.13375,-38.49972 9.52625,-9.43116 22.2409,-12.54685 35.03774,-12.45096 z m 19.482141,11.65772 c -0.25886,-0.89408 -0.54099,-1.77991 -0.82929,-2.66454 0.27431,0.9029 0.53567,1.75495 0.82929,2.66454 z m 7.8961,-9.40574 c -0.39883,0.95749 2.1777,1.12853 0,0 z m -8.12075,0.73919 c 0.29959,0.90386 0.59995,1.80794 0.87947,2.71858 -0.029,-0.0363 -0.0775,-0.0825 -0.10515,-0.11783 -0.27893,-0.99378 -0.5368,-1.85094 -0.77908,-2.59824 0.001,-0.001 0.004,-0.001 0.005,-0.003 z m 188.19671,2.29373 c -0.1515,-0.0272 -0.2836,-0.0245 -0.3967,0.009 -0.3012,0.0925 -0.4659,0.40628 -0.5019,0.93566 -0.1257,1.83891 3.2704,6.57302 4.4763,6.24021 0.4259,-0.11756 2.5366,1.64389 4.696,3.91211 l 3.9313,4.12331 -3.7831,1.04125 c -3.8852,1.0724 -9.7974,4.52743 -11.4618,6.45388 0.2277,0.37726 0.4496,0.75815 0.674,1.13704 1.539,-0.0723 4.4979,-0.64436 7.8578,-1.57172 4.7932,-1.32304 10.4664,-2.52381 12.6065,-2.66702 1.0701,-0.0717 2.0187,-0.23144 2.6838,-0.43222 0.6651,-0.20077 1.0476,-0.44322 0.9871,-0.67534 -0.1214,-0.46459 -2.9441,-2.83278 -6.271,-5.26526 -3.3271,-2.4325 -7.5501,-6.04874 -9.385,-8.03541 -3.0467,-3.29824 -5.053,-5.01444 -6.1133,-5.20631 z m -187.61597,3.78428 c 0.28855,0.88505 0.57257,1.7725 0.83167,2.66701 -0.29399,-0.91084 -0.55718,-1.76317 -0.83167,-2.66701 z m -55.351561,2.61789 c -0.22749,0.28679 -0.45307,0.56042 -0.67872,0.84971 -0.009,-0.0578 -0.0256,-0.11661 -0.0359,-0.17435 0.2345,-0.23215 0.47627,-0.45083 0.71458,-0.67536 z m 57.306471,0.61395 c 0.0628,0.16815 0.1247,0.32968 0.19119,0.51572 0.59859,2.61773 0.49321,2.22142 -0.19119,-0.51572 z m -10.97903,6.52017 c -3.755,0.007 -4.91231,5.30971 -4.67934,8.47501 0.0852,4.37557 2.78321,11.82121 7.66667,11.58897 0.88361,0.19328 1.84753,0.14144 2.8989,-0.26768 5.31605,-5.28345 2.82531,-16.76925 -3.9098,-19.63913 -0.39425,-0.0702 -0.75577,-0.0692 -1.10173,-0.0392 -0.0306,-0.0135 -0.0577,-0.0336 -0.0884,-0.0466 -0.27378,-0.0489 -0.53594,-0.0717 -0.78628,-0.0712 z M 3.4779487,253.80828 c -0.11783,0.0108 -0.24738,0.0376 -0.38717,0.0812 -0.98357,0.31244 -2.52088997,1.44249 -4.80122,3.4455 -3.94994,3.46965 -14.8281397,10.02901 -19.2503397,11.6086 -1.16362,0.41571 -2.08857,1.56726 -2.05288,2.5565 0.0506,1.41467 2.21973,1.71707 10.1545,1.42191 9.8766597,-0.36709 20.5818397,2.03529 20.6746997,4.63904 0.0469,1.30991 0.98085,1.26762 4.2444003,-0.18665 2.25616,-1.00558 2.20039,-1.2175 -1.16148,-4.19206 -1.9483503,-1.72352 -5.1624603,-3.39379 -7.1409103,-3.70827 -1.97821,-0.31443 -5.31235,-0.84689 -7.41096,-1.1837 l -3.81898,-0.60904 3.40554,-2.36986 c 4.95390003,-3.44406 8.71958,-7.72499 8.64412,-9.83061 -0.0365,-1.02357 -0.28529,-1.59132 -0.84122,-1.66994 -0.0793,-0.0108 -0.16596,-0.0108 -0.2581,-0.003 z m 316.9863313,9.46961 c -0.1553,-0.0108 -0.3178,0.0146 -0.4804,0.0812 -0.093,0.0385 -0.1901,0.0898 -0.282,0.15471 -1.6258,1.14886 0.5092,7.94289 3.6613,11.65282 2.6959,3.17293 9.0931,8.65329 15.9738,13.68868 1.7075,1.24948 3.141,2.40254 3.1833,2.56386 0.1951,0.74669 -8.8722,0.47062 -16.2009,-0.49362 l -8.1111,-1.06582 -1.465,3.01082 c 0.1284,0.73736 0.2071,1.39571 0.239,2.0064 2.7279,-1.36665 22.8989,0.70842 35.1691,3.65424 3.3234,0.79787 5.5026,1.01832 6.5626,0.65815 0.6363,-0.21607 0.8708,-0.64279 0.705,-1.27702 -0.1541,-0.58929 -2.8356,-2.63129 -5.9603,-4.53833 -4.1967,-2.56124 -9.1752,-6.27791 -13.9448,-10.2309 -2.8428,-0.13441 -1.2799,-3.36249 -6.326,-5.49119 -6.2163,-5.67376 -11.0784,-10.99564 -11.6912,-13.33995 -0.1643,-0.62871 -0.5666,-0.99984 -1.0324,-1.0339 z m 77.4219,0.76622 c -0.089,0.34533 -0.1778,0.72143 -0.2653,1.03635 -0.9694,3.48992 -1.8004,7.64382 -1.8473,9.23138 -0.1,3.37761 -3.0884,3.577 -5.1072,0.3389 -0.7389,-1.18566 -4.9813,-5.33745 -9.428,-9.22647 -0.4178,-0.36546 -0.8069,-0.72391 -1.2092,-1.08546 7.7527,0.35922 13.4652,0.30416 17.857,-0.2947 z m -115.14586,6.84434 c 0.3551,0.57062 0.72718,1.11476 1.1089,1.64783 l -1.1089,-1.64783 z m 1.1089,1.64783 5.81454,8.63956 -0.71936,-0.67045 c -1.64743,3.12517 -8.06236,2.71175 -13.28523,3.18272 8.20412,-0.0799 16.00971,-1.91586 25.38991,3.19502 -6.2008,-4.12297 -12.61554,-7.94473 -17.19986,-14.34685 z m -251.403771,4.04228 c -2.88027,3.94043 -7.1262,8.91973 -13.97113,16.60618 -6.63671,7.4528 -12.0473403,14.04611 -12.0281703,14.64891 0.0492,1.37523 1.93935,1.27513 7.3321003,-0.38557 14.03149,-4.3212 23.41845,-7.02462 30.356,-8.71076 0.71037,-1.80552 1.32612,-3.3513 1.94296,-4.8846 -8.8169,0.67166 -13.191,1.6998 -19.60881,4.60218 -8.94345,4.04477 -8.8887,4.2555 -1.49605,-5.59432 0.68668,-0.91487 3.07687,-3.44345 5.31027,-5.62135 2.45089,-2.38991 4.62996,-5.17788 6.38571,-8.00841 -1.57563,-0.80326 -3.03796,-1.67722 -4.22288,-2.65226 z m 26.62064,1.07073 -2.27514,0.0541 c -5.83251,0.65651 -5.63518,0.89275 -3.23825,0.69745 -1.50738,0.33038 2.50508,0.12281 6.69638,-0.66553 l -1.99075,0.0492 c 0.27143,-0.0466 0.534,-0.0834 0.80776,-0.13507 z m 83.162381,21.8518 c 0.35294,0.005 0.68903,0.0466 1.03481,0.0688 0.67608,0.084 1.33423,0.19724 1.96447,0.35119 1.83252,0.57249 3.48341,1.6427 4.92311,2.92485 8.30875,9.58661 17.12935,19.71008 24.62512,29.44516 -2.74942,0.67951 -5.55108,0.89485 -8.34301,0.74658 -8.65828,-0.78961 -17.15353,-5.106 -23.70263,-10.81295 -3.37133,-3.77995 -4.8723,-4.57695 -5.16449,-3.84823 -3.80281,-2.34836 1.94624,9.1286 6.89235,11.45634 -2.17723,1.46545 -5.0257,2.08363 -7.97256,1.96219 -6.81302,-0.7493 -13.75651,-5.47632 -13.93768,-13.51677 -3.616,-11.98025 9.38768,-18.9324 19.68051,-18.77711 z m 122.88664,2.70137 2.34205,7.65722 -0.37281,-0.6557 c -1.81481,1.93278 -6.27984,0.19746 -10.08282,-0.62132 5.83736,1.77191 11.75399,2.16039 17.35278,8.01577 -3.54715,-4.41855 -7.30985,-8.66051 -9.2392,-14.39597 z m 42.99837,10.14742 c -0.096,-0.0198 -0.1871,-0.009 -0.2748,0.0294 -0.7019,0.31073 -1.1078,2.48347 -0.6429,6.2623 0.7157,5.81807 4.5392,17.70313 7.5161,23.35721 1.108,2.10425 1.0561,2.13646 -0.7002,0.45679 -1.0436,-0.99804 -4.2141,-3.05085 -7.0477,-4.5629 -2.8338,-1.51209 -6.6219,-3.62376 -8.4171,-4.69305 -1.7956,-1.06928 -4.9609,-1.89048 -7.0334,-1.82222 l -3.76879,0.12524 5.12149,2.34529 c 7.3447,3.36727 11.5326,6.06888 19.6494,12.66952 8.7112,7.08427 10.452,8.17589 12.26,7.67687 0.9277,-0.25602 0.8501,-1.4514 -0.227,-3.51917 -5.3728,-10.31492 -13.4794,-29.25362 -14.2914,-33.38918 -0.63,-3.20767 -1.4726,-4.79744 -2.1437,-4.93619 z m 84.907,1.08546 c 0.6447,0.0471 1.0957,0.8255 1.5008,2.30355 0.4105,1.49785 3.2115,5.94784 6.2256,9.892 3.4436,4.50636 4.727,6.80989 3.8859,6.9745 -0.057,0.0108 -0.1213,0.0151 -0.196,0.008 -0.9843,-0.10556 -1.8954,-0.53957 -2.0218,-0.96513 -0.1265,-0.42553 -3.3619,-1.95754 -7.1935,-3.4062 -8.0504,-3.0438 -9.6842,-6.14512 -5.946,-11.28445 1.5723,-2.16139 2.6505,-3.31328 3.4534,-3.49952 0.1003,-0.0233 0.1995,-0.0288 0.2916,-0.0221 z m -336.274931,2.37477 c -2.68723,5.79354 -4.06104,11.80717 -10.63488,16.95245 4.84623,-3.18943 9.56037,-6.61553 15.40025,-8.02066 l -7.75509,1.6331 0.69067,-0.31434 c -1.55294,-2.0471 0.87108,-6.44289 2.29905,-10.25055 z m 4.76537,8.93179 1.48411,-0.3119 c -0.50323,0.0876 -0.99729,0.19476 -1.48411,0.3119 z m 204.727401,1.34085 1.23318,5.74907 -0.17684,-0.40768 c -0.99552,1.28006 -3.28585,0.28672 -5.25292,-0.13752 3.00676,0.97984 6.08651,1.07708 8.86877,4.66849 -1.89077,-2.95481 -3.92016,-5.77298 -4.67219,-9.87236 z m -106.35596,9.98287 c 0.68513,0.005 1.36884,0.0233 2.0529,0.0565 2.40792,0.1841 4.80677,0.56779 7.18631,1.29667 6.93441,1.39293 -7.29379,5.18148 -8.39557,6.59139 -2.89299,2.31976 -8.65415,3.30702 -14.01415,2.94696 -7.13052,-0.76158 -13.08071,-4.02233 -9.77453,-9.93865 7.50161,0.57961 15.25087,-1.00404 22.94504,-0.95285 z m 16.1459,6.36546 c 0.30529,6.49981 -3.44958,12.71194 -6.49325,18.20984 -3.97609,9.67278 -11.88933,17.6531 -22.11099,17.2275 -1.0897,-0.11325 -2.2039,-0.31972 -3.34102,-0.63114 -14.25251,-1.33144 -19.17944,-18.33489 -16.99909,-30.77866 6.53274,2.86234 16.45235,8.54718 15.07764,18.15825 0.14472,5.92841 0.7953,6.334 1.53907,4.4843 0.8975,4.51715 3.13452,-7.33436 3.68994,-11.62826 6.30817,-8.94156 19.73063,-8.95346 28.6377,-15.04183 z m 71.80576,1.19598 0.41344,4.99021 -0.10515,-0.37083 c -0.97778,0.87895 -2.80034,-0.36374 -4.41169,-1.07564 2.42701,1.36294 5.01454,2.00913 6.96884,5.4961 -1.27227,-2.79595 -2.67692,-5.50351 -2.86544,-9.03984 z m -204.027181,9.09631 c -2.03689,3.93958 -3.14477,8.13248 -7.92477,11.31883 3.80287,-2.07744 7.49846,-4.36924 12.16439,-4.69549 l -6.5984,0.70234 0.49947,-0.17435 c -1.05587,-1.57872 0.76053,-4.53691 1.85931,-7.15133 z m 227.729811,0.56976 c -0.10677,0.009 -0.22188,0.033 -0.34174,0.0662 -3.5095,0.96863 -4.27806,5.3638 -4.03648,23.06252 0.0716,5.24879 -0.0298,9.82797 -0.22704,10.17933 -0.19724,0.35134 -1.97152,-1.71191 -3.94328,-4.58499 -1.97162,-2.87306 -6.13872,-8.22533 -9.2583,-11.8935 -4.90701,-5.76951 -5.79178,-6.34581 -6.57451,-4.26574 -0.73349,1.94916 -0.11311,3.3362 3.29083,7.32569 5.78155,6.77602 9.33953,11.49136 13.55768,17.96425 4.68408,7.18793 7.37571,10.33262 8.56288,10.00496 0.52766,-0.14564 0.88114,-1.55918 0.78386,-3.14344 -0.0976,-1.5842 -0.40673,-4.87129 -0.6835,-7.30111 -1.71552,-15.06346 -2.02784,-26.23942 -0.84601,-30.29241 1.31803,-4.51922 1.31968,-6.93762 0.0143,-7.11695 -0.0933,-0.0135 -0.19205,-0.0152 -0.29873,-0.005 z m -40.84271,12.07768 -1.25946,7.94944 -0.0454,-0.75885 c -2.46594,0.89014 -5.69895,-2.72058 -8.73971,-5.2063 4.44239,4.27575 9.56106,7.35479 12.00666,15.16952 -1.24174,-5.59315 -2.75151,-11.12786 -1.96207,-17.15381 z M 88.310809,385.23339 c -1.71537,6.00116 -2.08465,12.08412 -7.77421,17.84636 4.29717,-3.65409 8.42317,-7.53093 14.00699,-9.52117 l -7.45877,2.42142 0.6381,-0.38309 c -1.88366,-1.86192 -0.20308,-6.45435 0.58789,-10.36352 z m 6.23278,8.32519 1.4124,-0.45679 c -0.48211,0.13744 -0.95115,0.29238 -1.4124,0.45679 z m -84.19957,-7.87333 c 0.10259,-0.008 0.21465,-0.003 0.33457,0.0147 0.83942,0.12578 2.11522,0.89063 3.97195,2.28145 5.04587,3.77948 4.37326,7.2376 -2.44722,12.58356 -3.2461603,2.5444 -5.8993503,4.98987 -5.8981703,5.43472 9.9e-4,0.44496 -0.74582,1.13354 -1.65617,1.53241 -1.1093,0.48612 -0.60719,-2.0819 1.52473,-7.78737 1.74949,-4.68156 3.15096,-9.78281 3.11398,-11.33846 -0.0365,-1.53513 0.17408,-2.41703 0.7767103,-2.65719 0.086,-0.0345 0.17711,-0.0557 0.27962,-0.0639 z m 331.691161,0.13998 c 1.4377,0.0818 2.8788,1.97605 4.3567,5.69011 1.3477,3.3873 3.2211,7.8518 4.1631,9.91902 1.0307,2.2637 1.3885,3.49866 1.0563,3.70336 -0.4272,0.26318 -1.9922,-1.17841 -4.708,-4.32468 -2.2463,-2.60232 -4.3942,-4.64524 -4.7725,-4.54079 -0.3785,0.10448 -1.6824,-0.76532 -2.8989,-1.93027 -1.8828,-1.80289 -2.0004,-2.54598 -0.7815,-4.99266 0.9959,-1.99888 1.983,-3.14894 2.9682,-3.44795 0.2053,-0.0624 0.4112,-0.0879 0.6166,-0.0762 z M 206.7571,396.39999 c -1.13025,0.51201 -2.65934,1.05312 -4.20615,1.58889 2.35592,4.9675 5.26412,13.08784 6.47891,18.09687 1.22032,5.03369 3.18679,10.49677 4.37104,12.13907 1.35885,1.88431 2.87125,2.65941 3.90982,2.45335 1.0387,-0.20607 1.60363,-1.39292 1.06826,-3.44059 -0.42805,-1.63827 -0.64274,-4.36322 -0.47796,-6.05357 0.16478,-1.69032 0.42366,-6.62366 0.57833,-10.96273 0.15456,-4.33912 0.60001,-9.44382 0.99658,-11.34093 0.008,-0.0423 0.0135,-0.0851 0.0216,-0.12766 -1.65942,0.39206 -3.3432,0.73015 -5.01633,1.05599 -0.15219,1.47439 -0.26849,2.93269 -0.33936,4.34679 -0.23368,4.66323 -0.8495,8.05862 -1.36939,7.54178 -0.51368,-0.51071 -2.4828,-5.37314 -4.39734,-10.84485 -0.13441,0.0174 -0.34716,0.0559 -0.47319,0.0712 -0.69648,0.0839 -0.55358,-0.99869 -0.29156,-2.18076 -0.28525,-0.7885 -0.57407,-1.60791 -0.85317,-2.34285 z m 165.71048,23.92694 c -0.012,0.005 -0.02,0.0137 -0.033,0.0173 1.3334,0.89297 2.2692,1.71532 2.691,2.41897 0.6683,1.11509 3.0791,1.17352 5.0116,0.63359 -2.5147,-1.037 -5.0579,-2.04729 -7.6667,-3.06975 l 0,0 z m -302.274301,4.23872 c 0.27151,0.009 0.56898,0.0608 0.87948,0.14981 1.035,0.2966 2.23864,1.02789 3.27888,2.1783 l 2.58823,2.86593 -6.27816,5.90131 c -3.45235,3.2454 -6.4151,5.9672 -6.58407,6.04867 -0.16908,0.0814 0.23863,-1.61391 0.90575,-3.76721 0.66721,-2.15332 1.87007,-5.23422 2.67426,-6.84434 0.80406,-1.61011 1.27572,-3.64526 1.04677,-4.52115 -0.27809,-1.06418 0.0714,-1.699 0.75757,-1.92291 0.21446,-0.07 0.45981,-0.099 0.73129,-0.0884 z m 214.564091,7.30114 c 0.10353,0.009 0.18997,0.0349 0.25811,0.076 0.54624,0.3236 1.57068,5.70237 2.27514,11.95242 0.70432,6.25008 0.99572,11.19596 0.64765,10.98976 -0.34806,-0.20627 -2.30508,-3.60923 -4.34955,-7.55898 -5.63923,-10.89486 -5.75937,-11.55594 -2.48306,-13.89252 0.90217,-0.6434 1.85539,-1.13892 2.61212,-1.38999 0.25228,-0.0837 0.48088,-0.13863 0.68111,-0.16454 0.13346,-0.0177 0.25497,-0.0222 0.35848,-0.0121 z m -65.76418,23.64944 c 0.78728,-0.0235 1.54043,0.0399 2.20822,0.1891 1.33558,0.2984 2.33206,0.93928 2.58344,1.9008 0.32493,1.24326 0.16764,2.71924 -0.34653,3.28095 -0.51418,0.56175 -1.02313,4.54353 -1.13279,8.85075 -0.13674,5.37206 -0.56132,7.93021 -1.44348,7.91996 -0.5293,-0.007 -1.2207,-0.93569 -2.11742,-2.73576 -0.8623,-1.73114 -2.38988,-4.27138 -3.39598,-5.63853 -3.32448,-4.51791 -4.21737,-10.54929 -1.79479,-12.14398 0.89968,-0.59227 1.95019,-1.02181 3.02556,-1.28931 0.8065,-0.20066 1.62646,-0.31054 2.41377,-0.33398 z m -71.69582,2.41651 4.57896,1.3728 c 2.51891,0.7554 4.44067,1.63262 4.27068,1.94746 -0.17071,0.31477 -2.3687,4.69166 -4.88487,9.72746 -2.51654,5.03578 -4.70295,9.19905 -4.85858,9.24858 -0.15562,0.0495 -0.0848,-2.1619 0.15772,-4.91408 0.24255,-2.75219 0.5068,-7.78998 0.5879,-11.19358 l 0.14819,-6.18864 z m 36.15618,21.64551 c 0.17186,-0.0772 0.41222,0.33142 0.67873,1.2058 0.28945,0.9494 0.31106,1.63453 0.0933,1.79274 -0.0727,0.0527 -0.17117,0.0444 -0.29635,-0.0294 -0.49764,-0.29517 -0.81782,-1.32795 -0.70501,-2.29864 0.0469,-0.40225 0.12632,-0.62399 0.22942,-0.67043 z m 120.82183,0.68762 c -1.5812,1.039 -3.1389,2.12898 -4.677,3.27115 5.7659,5.41083 7.1662,6.05307 7.1098,4.19698 -0.037,-1.37454 -1.0808,-4.47239 -2.4328,-7.46813 z"
     id="path4725-7"
     inkscape:connector-curvature="0" />
  <path
     style="opacity:1;fill:#000000;fill-opacity:1;stroke:#ffffff;stroke-width:4.62769032;stroke-miterlimit:4;stroke-dasharray:none;stroke-opacity:1"
     d=""
     id="path4961"
     inkscape:connector-curvature="0" />
  <path
     style="opacity:1;fill:#ffffff;fill-opacity:1;stroke:#ffffff;stroke-width:4.62769032;stroke-miterlimit:4;stroke-dasharray:none;stroke-opacity:1"
     d=""
     id="path5027"
     inkscape:connector-curvature="0" />
  <path
     style="opacity:1;fill:#ffffff;fill-opacity:1;stroke:#ffffff;stroke-width:4.62769032;stroke-miterlimit:4;stroke-dasharray:none;stroke-opacity:1"
     d=""
     id="path5029"
     inkscape:connector-curvature="0" />
  <path
     style="opacity:1;fill:#ffffff;fill-opacity:1;stroke:#ffffff;stroke-width:4.62769032;stroke-miterlimit:4;stroke-dasharray:none;stroke-opacity:1"
     d=""
     id="path5031"
     inkscape:connector-curvature="0" />
  <path
     style="opacity:1;fill:#ffffff;fill-opacity:1;stroke:#ffffff;stroke-width:4.62769032;stroke-miterlimit:4;stroke-dasharray:none;stroke-opacity:1"
     d=""
     id="path5035"
     inkscape:connector-curvature="0" />
  <path
     style="opacity:1;fill:#ffffff;fill-opacity:1;stroke:#ffffff;stroke-width:4.62769032;stroke-miterlimit:4;stroke-dasharray:none;stroke-opacity:1"
     d=""
     id="path5037"
     inkscape:connector-curvature="0" />
  <path
     style="opacity:1;fill:#ffffff;fill-opacity:1;stroke:#ffffff;stroke-width:4.62769032;stroke-miterlimit:4;stroke-dasharray:none;stroke-opacity:1"
     d=""
     id="path5041"
     inkscape:connector-curvature="0" />
  <path
     style="opacity:1;fill:#ffffff;fill-opacity:1;stroke:#ffffff;stroke-width:4.62769032;stroke-miterlimit:4;stroke-dasharray:none;stroke-opacity:1"
     d=""
     id="path5045"
     inkscape:connector-curvature="0" />
  <path
     style="opacity:1;fill:#ffffff;fill-opacity:1;stroke:#ffffff;stroke-width:4.62769032;stroke-miterlimit:4;stroke-dasharray:none;stroke-opacity:1"
     d=""
     id="path5047"
     inkscape:connector-curvature="0" />
  <path
     style="opacity:1;fill:#ffffff;fill-opacity:1;stroke:#ffffff;stroke-width:1.15692258;stroke-miterlimit:4;stroke-dasharray:none;stroke-opacity:1"
     d=""
     id="path5104"
     inkscape:connector-curvature="0" />
</svg>
